<svg xmlns="http://www.w3.org/2000/svg" viewBox="0 0 188.22 29.71"><title>Asset 1</title><g id="Layer_2" data-name="Layer 2"><g id="Layer_1-2" data-name="Layer 1"><path d="M18.52,34H3.67V6H17.89V9H7v9.32H17.07v2.95H7V31H18.52Z" transform="translate(-3.67 -4.77)"/><path d="M33.91,17.25a3.92,3.92,0,0,0-2.42-.64,4.09,4.09,0,0,0-3.43,1.93,8.94,8.94,0,0,0-1.38,5.27V34h-3.2V14h3.2v4.12h.08a7,7,0,0,1,2.09-3.29A4.77,4.77,0,0,1,32,13.65a5.23,5.23,0,0,1,1.91.27Z" transform="translate(-3.67 -4.77)"/><path d="M39,8.93a2,2,0,0,1-1.46-.59A2,2,0,0,1,37,6.86,2.05,2.05,0,0,1,39,4.77a2.07,2.07,0,0,1,1.49.6,2,2,0,0,1,.62,1.49,2,2,0,0,1-.62,1.46A2.05,2.05,0,0,1,39,8.93ZM40.59,34h-3.2V14h3.2Z" transform="translate(-3.67 -4.77)"/><path d="M60.7,33.09a10.41,10.41,0,0,1-5.47,1.39,9.05,9.05,0,0,1-6.9-2.78,10.09,10.09,0,0,1-2.63-7.22,11.09,11.09,0,0,1,2.83-7.94,9.91,9.91,0,0,1,7.56-3,10.52,10.52,0,0,1,4.65,1v3.28A8.15,8.15,0,0,0,56,16.23a6.44,6.44,0,0,0-5,2.2,8.34,8.34,0,0,0-2,5.77,7.94,7.94,0,0,0,1.85,5.55,6.36,6.36,0,0,0,5,2A8,8,0,0,0,60.7,30Z" transform="translate(-3.67 -4.77)"/><path d="M80.21,23.42V34H76.93V6h7.7q4.49,0,7,2.19a7.81,7.81,0,0,1,2.47,6.17,8.49,8.49,0,0,1-2.74,6.52,10.48,10.48,0,0,1-7.41,2.54ZM80.21,9V20.45h3.44a7.69,7.69,0,0,0,5.19-1.55,5.5,5.5,0,0,0,1.79-4.38Q90.63,9,84.06,9Z" transform="translate(-3.67 -4.77)"/><path d="M107.27,34.47a9.28,9.28,0,0,1-7.08-2.8,10.38,10.38,0,0,1-2.65-7.43q0-5,2.75-7.87a9.9,9.9,0,0,1,7.44-2.83,9,9,0,0,1,7,2.75q2.51,2.75,2.51,7.64a10.74,10.74,0,0,1-2.71,7.67A9.48,9.48,0,0,1,107.27,34.47Zm.23-18.24a6.09,6.09,0,0,0-4.88,2.1,8.62,8.62,0,0,0-1.8,5.79,8.15,8.15,0,0,0,1.82,5.61,6.17,6.17,0,0,0,4.86,2.05,5.86,5.86,0,0,0,4.78-2A8.73,8.73,0,0,0,113.95,24a8.88,8.88,0,0,0-1.67-5.78A5.83,5.83,0,0,0,107.5,16.23Z" transform="translate(-3.67 -4.77)"/><path d="M124,8.93a2,2,0,0,1-1.46-.59,2,2,0,0,1-.61-1.48A2.05,2.05,0,0,1,124,4.77a2.07,2.07,0,0,1,1.49.6,2,2,0,0,1,.62,1.49,2,2,0,0,1-.62,1.46A2.05,2.05,0,0,1,124,8.93ZM125.55,34h-3.2V14h3.2Z" transform="translate(-3.67 -4.77)"/><path d="M141.31,33.81a6.18,6.18,0,0,1-3,.63q-5.25,0-5.25-5.86V16.74h-3.44V14h3.44V9.12l3.2-1V14h5v2.73h-5V28a4.67,4.67,0,0,0,.68,2.87,2.73,2.73,0,0,0,2.27.86,3.37,3.37,0,0,0,2.09-.66Z" transform="translate(-3.67 -4.77)"/><path d="M156,17.25a3.92,3.92,0,0,0-2.42-.64,4.09,4.09,0,0,0-3.43,1.93,8.94,8.94,0,0,0-1.38,5.27V34h-3.2V14h3.2v4.12h.08A7,7,0,0,1,151,14.83a4.77,4.77,0,0,1,3.14-1.18,5.23,5.23,0,0,1,1.91.27Z" transform="translate(-3.67 -4.77)"/><path d="M173.81,34h-3.2V30.88h-.08a6.71,6.71,0,0,1-6.15,3.59,6.57,6.57,0,0,1-4.68-1.58,5.48,5.48,0,0,1-1.69-4.2q0-5.61,6.6-6.52l6-.84q0-5.1-4.12-5.1A9.84,9.84,0,0,0,160,18.69V15.41a12.39,12.39,0,0,1,6.8-1.87q7.05,0,7.05,7.46Zm-3.2-10.12-4.82.66a7.83,7.83,0,0,0-3.36,1.1,3.18,3.18,0,0,0-1.13,2.8,3.05,3.05,0,0,0,1,2.39,4,4,0,0,0,2.78.93,5.14,5.14,0,0,0,3.94-1.67,6,6,0,0,0,1.55-4.23Z" transform="translate(-3.67 -4.77)"/><path d="M178.63,33.28V29.84a9.48,9.48,0,0,0,5.76,1.93q4.22,0,4.22-2.81a2.44,2.44,0,0,0-.36-1.36,3.61,3.61,0,0,0-1-1,7.55,7.55,0,0,0-1.45-.77L184,25.14a22.9,22.9,0,0,1-2.33-1.06A7,7,0,0,1,180,22.86a4.5,4.5,0,0,1-1-1.53,5.42,5.42,0,0,1-.34-2,4.78,4.78,0,0,1,.64-2.49A5.71,5.71,0,0,1,181,15a8,8,0,0,1,2.45-1.1,10.89,10.89,0,0,1,2.84-.37,11.48,11.48,0,0,1,4.65.9v3.24a9.06,9.06,0,0,0-5.08-1.45,5.93,5.93,0,0,0-1.62.21A4,4,0,0,0,183,17a2.66,2.66,0,0,0-.8.89A2.34,2.34,0,0,0,182,19a2.74,2.74,0,0,0,.28,1.31,2.88,2.88,0,0,0,.83.94,6.32,6.32,0,0,0,1.33.74q.78.33,1.78.72a24.88,24.88,0,0,1,2.38,1,8.19,8.19,0,0,1,1.8,1.21,4.74,4.74,0,0,1,1.14,1.55,5,5,0,0,1,.4,2.09,4.93,4.93,0,0,1-.65,2.58A5.61,5.61,0,0,1,189.49,33,8,8,0,0,1,187,34.12a12.44,12.44,0,0,1-3,.35A11.35,11.35,0,0,1,178.63,33.28Z" transform="translate(-3.67 -4.77)"/></g></g></svg>