<svg xmlns="http://www.w3.org/2000/svg" viewBox="0 0 463.38 344.97"><defs><style>.cls-1{fill:#fff;}.cls-2{fill:#2f5384;}.cls-3{fill:#494949;}.cls-4{fill:#212121;}.cls-5{fill:#69add4;}.cls-6{fill:#87c5f6;}.cls-7{fill:#e6e6e6;}.cls-8{fill:#101012;}.cls-9{fill:#ecaf74;}.cls-10{fill:#f15a24;}</style></defs><title>portfolio2</title><g id="Layer_2" data-name="Layer 2"><g id="OBJECTS"><circle class="cls-1" cx="29.99" cy="8.38" r="3.63" transform="translate(14.69 35.5) rotate(-76.17)"/><path class="cls-2" d="M69.37,16.91a4.1,4.1,0,1,1,5-3A4.1,4.1,0,0,1,69.37,16.91Zm1.74-7a3.16,3.16,0,1,0,2.31,3.83A3.16,3.16,0,0,0,71.11,9.86Z"/><path class="cls-2" d="M36.28,37.29a4.1,4.1,0,1,1,5-3A4.1,4.1,0,0,1,36.28,37.29Zm1.74-7a3.16,3.16,0,1,0,2.31,3.83A3.16,3.16,0,0,0,38,30.24Z"/><path class="cls-1" d="M50.53,17.85a.25.25,0,0,1,.34-.17l2.25.91-.26,1.05-2.42-.24a.25.25,0,0,1-.22-.31Z"/><path class="cls-1" d="M55.11,16.13a.25.25,0,0,1,.17.34l-.91,2.25-1.05-.26L53.56,16a.25.25,0,0,1,.31-.22Z"/><path class="cls-1" d="M56.8,20.79a.25.25,0,0,1-.34.17l-2.25-.91L54.47,19l2.42.24a.25.25,0,0,1,.22.31Z"/><path class="cls-1" d="M52.22,22.51a.25.25,0,0,1-.17-.34L53,19.91l1.05.26-.24,2.42a.25.25,0,0,1-.31.22Z"/><path class="cls-1" d="M91.45,25.61a.25.25,0,0,1,.34-.17l2.25.91-.26,1.05-2.42-.24a.25.25,0,0,1-.22-.31Z"/><path class="cls-1" d="M96,23.9a.25.25,0,0,1,.17.34l-.91,2.25-1.05-.26.24-2.42a.25.25,0,0,1,.31-.22Z"/><path class="cls-1" d="M97.73,28.56a.25.25,0,0,1-.34.17l-2.25-.91.26-1.05,2.42.24a.25.25,0,0,1,.22.31Z"/><path class="cls-1" d="M93.15,30.27a.25.25,0,0,1-.17-.34l.91-2.25,1.05.26-.24,2.42a.25.25,0,0,1-.31.22Z"/><path class="cls-1" d="M23.23,49.28a.25.25,0,0,1,.34-.17l2.25.91-.26,1.05-2.42-.24a.25.25,0,0,1-.22-.31Z"/><path class="cls-1" d="M27.81,47.56a.25.25,0,0,1,.17.34l-.91,2.25L26,49.89l.24-2.42a.25.25,0,0,1,.31-.22Z"/><path class="cls-1" d="M29.5,52.22a.25.25,0,0,1-.34.17l-2.25-.91.26-1.05,2.42.24a.25.25,0,0,1,.22.31Z"/><path class="cls-1" d="M24.92,53.94a.25.25,0,0,1-.17-.34l.91-2.25,1.05.26L26.47,54a.25.25,0,0,1-.31.22Z"/><circle class="cls-1" cx="16.95" cy="82.17" r="3.63" transform="translate(-66.89 78.99) rotate(-76.17)"/><path class="cls-2" d="M120,25.28a4.1,4.1,0,1,1,5-3A4.1,4.1,0,0,1,120,25.28Zm1.74-7a3.16,3.16,0,1,0,2.31,3.83A3.16,3.16,0,0,0,121.76,18.24Z"/><path class="cls-2" d="M0,53.79a.25.25,0,0,1,.27-.27l2.42.19.07,1.08-2.38.5a.25.25,0,0,1-.3-.23Z"/><path class="cls-2" d="M3.85,50.78a.25.25,0,0,1,.27.27l-.19,2.42-1.08.07-.5-2.38a.25.25,0,0,1,.23-.3Z"/><path class="cls-2" d="M6.87,54.71A.25.25,0,0,1,6.6,55l-2.42-.19L4.11,53.7l2.38-.5a.25.25,0,0,1,.3.23Z"/><path class="cls-2" d="M3,57.72a.25.25,0,0,1-.27-.27L2.94,55,4,55l.5,2.38a.25.25,0,0,1-.23.3Z"/><path class="cls-2" d="M104.77,6.81a.87.87,0,0,1-.59-1.19l.66-1.51L104,2.72a.87.87,0,0,1,.82-1.32l1.64.16L107.48.31a.86.86,0,0,1,.87-.28h0a.86.86,0,0,1,.64.65l.35,1.6,1.52.62A.87.87,0,0,1,111,4.45l-1.42.83-.12,1.64A.86.86,0,0,1,108,7.5l-1.23-1.09-1.59.39A.85.85,0,0,1,104.77,6.81Zm2.12-.42h0Zm1.83.31h0Zm-3.6-4.16.69,1.12a.86.86,0,0,1,.06.8l-.52,1.2,1.27-.32a.87.87,0,0,1,.78.19l1,.87.09-1.31a.86.86,0,0,1,.43-.68L110,3.74l-1.22-.49a.87.87,0,0,1-.52-.62L108,1.35l-.85,1a.87.87,0,0,1-.74.3Zm2.8-1.61Z"/><path class="cls-3" d="M388.49,279.06a9.22,9.22,0,0,0,9.21-9.22V48.68a10.92,10.92,0,0,0-10.93-10.84H57.33A10.92,10.92,0,0,0,46.4,48.68V270.05a9.22,9.22,0,0,0,9.22,9.22Z"/><rect class="cls-1" x="61.05" y="52.67" width="322" height="184.67" rx="3.33" ry="3.33"/><rect class="cls-4" x="165.05" y="279.27" width="114" height="39.41"/><path class="cls-3" d="M312.65,333H131.45a7.17,7.17,0,0,1-7.17-7.17h0a7.17,7.17,0,0,1,7.17-7.17h181.2a7.17,7.17,0,0,1,7.17,7.17h0A7.17,7.17,0,0,1,312.65,333Z"/><rect class="cls-2" x="70.51" y="62.16" width="303.33" height="23.99" rx="3.41" ry="3.41"/><circle class="cls-5" cx="148.26" cy="187.79" r="10.5"/><path class="cls-6" d="M222.13,193.79H174.76a7.59,7.59,0,0,1-7.57-7.57h0a7.59,7.59,0,0,1,7.57-7.57h47.37a7.59,7.59,0,0,1,7.57,7.57h0A7.59,7.59,0,0,1,222.13,193.79Z"/><circle class="cls-5" cx="148.26" cy="214.51" r="10.5"/><path class="cls-6" d="M222.13,220.51H174.76a7.59,7.59,0,0,1-7.57-7.57h0a7.59,7.59,0,0,1,7.57-7.57h47.37a7.59,7.59,0,0,1,7.57,7.57h0A7.59,7.59,0,0,1,222.13,220.51Z"/><path class="cls-7" d="M88,158.09H73.66a1.59,1.59,0,0,1-1.58-1.58h0a1.59,1.59,0,0,1,1.58-1.58H88a1.59,1.59,0,0,1,1.58,1.58h0A1.59,1.59,0,0,1,88,158.09Z"/><rect class="cls-7" x="98.08" y="154.92" width="8.17" height="3.17" rx="1.08" ry="1.08"/><path class="cls-7" d="M93.83,158.09h0a1.59,1.59,0,0,1-1.58-1.58h0a1.59,1.59,0,0,1,1.58-1.58h0a1.59,1.59,0,0,1,1.58,1.58h0A1.59,1.59,0,0,1,93.83,158.09Z"/><path class="cls-7" d="M90.33,161.17h14.33a1.59,1.59,0,0,1,1.58,1.58h0a1.59,1.59,0,0,1-1.58,1.58H90.33a1.59,1.59,0,0,1-1.58-1.58h0A1.59,1.59,0,0,1,90.33,161.17Z"/><rect class="cls-7" x="72.08" y="161.17" width="8.17" height="3.17" rx="1.08" ry="1.08" transform="translate(152.32 325.52) rotate(180)"/><path class="cls-7" d="M84.49,161.17h0a1.59,1.59,0,0,1,1.58,1.58h0a1.59,1.59,0,0,1-1.58,1.58h0a1.59,1.59,0,0,1-1.58-1.58h0A1.59,1.59,0,0,1,84.49,161.17Z"/><path class="cls-7" d="M126.7,158.09H112.37a1.59,1.59,0,0,1-1.58-1.58h0a1.59,1.59,0,0,1,1.58-1.58H126.7a1.59,1.59,0,0,1,1.58,1.58h0A1.59,1.59,0,0,1,126.7,158.09Z"/><rect class="cls-7" x="136.78" y="154.92" width="8.17" height="3.17" rx="1.08" ry="1.08"/><path class="cls-7" d="M132.53,158.09h0a1.59,1.59,0,0,1-1.58-1.58h0a1.59,1.59,0,0,1,1.58-1.58h0a1.59,1.59,0,0,1,1.58,1.58h0A1.59,1.59,0,0,1,132.53,158.09Z"/><path class="cls-7" d="M129,161.17h14.33a1.59,1.59,0,0,1,1.58,1.58h0a1.59,1.59,0,0,1-1.58,1.58H129a1.59,1.59,0,0,1-1.58-1.58h0A1.59,1.59,0,0,1,129,161.17Z"/><rect class="cls-7" x="110.78" y="161.17" width="8.17" height="3.17" rx="1.08" ry="1.08" transform="translate(229.73 325.52) rotate(180)"/><path class="cls-7" d="M123.2,161.17h0a1.59,1.59,0,0,1,1.58,1.58h0a1.59,1.59,0,0,1-1.58,1.58h0a1.59,1.59,0,0,1-1.58-1.58h0A1.59,1.59,0,0,1,123.2,161.17Z"/><path class="cls-7" d="M164.83,158.09H150.49a1.59,1.59,0,0,1-1.58-1.58h0a1.59,1.59,0,0,1,1.58-1.58h14.33a1.59,1.59,0,0,1,1.58,1.58h0A1.59,1.59,0,0,1,164.83,158.09Z"/><rect class="cls-7" x="174.91" y="154.92" width="8.17" height="3.17" rx="1.08" ry="1.08"/><path class="cls-7" d="M170.66,158.09h0a1.59,1.59,0,0,1-1.58-1.58h0a1.59,1.59,0,0,1,1.58-1.58h0a1.59,1.59,0,0,1,1.58,1.58h0A1.59,1.59,0,0,1,170.66,158.09Z"/><path class="cls-7" d="M167.16,161.17h14.33a1.59,1.59,0,0,1,1.58,1.58h0a1.59,1.59,0,0,1-1.58,1.58H167.16a1.59,1.59,0,0,1-1.58-1.58h0A1.59,1.59,0,0,1,167.16,161.17Z"/><rect class="cls-7" x="148.91" y="161.17" width="8.17" height="3.17" rx="1.08" ry="1.08" transform="translate(305.99 325.52) rotate(180)"/><path class="cls-7" d="M161.33,161.17h0a1.59,1.59,0,0,1,1.58,1.58h0a1.59,1.59,0,0,1-1.58,1.58h0a1.59,1.59,0,0,1-1.58-1.58h0A1.59,1.59,0,0,1,161.33,161.17Z"/><path class="cls-7" d="M203.53,158.09H189.2a1.59,1.59,0,0,1-1.58-1.58h0a1.59,1.59,0,0,1,1.58-1.58h14.33a1.59,1.59,0,0,1,1.58,1.58h0A1.59,1.59,0,0,1,203.53,158.09Z"/><rect class="cls-7" x="213.62" y="154.92" width="8.17" height="3.17" rx="1.08" ry="1.08"/><path class="cls-7" d="M209.37,158.09h0a1.59,1.59,0,0,1-1.58-1.58h0a1.59,1.59,0,0,1,1.58-1.58h0a1.59,1.59,0,0,1,1.58,1.58h0A1.59,1.59,0,0,1,209.37,158.09Z"/><path class="cls-7" d="M205.87,161.17H220.2a1.59,1.59,0,0,1,1.58,1.58h0a1.59,1.59,0,0,1-1.58,1.58H205.87a1.59,1.59,0,0,1-1.58-1.58h0A1.59,1.59,0,0,1,205.87,161.17Z"/><rect class="cls-7" x="187.62" y="161.17" width="8.17" height="3.17" rx="1.08" ry="1.08" transform="translate(383.4 325.52) rotate(180)"/><path class="cls-7" d="M200,161.17h0a1.59,1.59,0,0,1,1.58,1.58h0a1.59,1.59,0,0,1-1.58,1.58h0a1.59,1.59,0,0,1-1.58-1.58h0A1.59,1.59,0,0,1,200,161.17Z"/><rect class="cls-6" x="70.51" y="99.01" width="155.5" height="50.74" rx="7.75" ry="7.75"/><rect class="cls-7" x="238.89" y="154.92" width="15.45" height="3.17" rx="1.49" ry="1.49"/><rect class="cls-7" x="261.85" y="154.92" width="7.21" height="3.17" rx="1.02" ry="1.02"/><path class="cls-7" d="M258.09,158.09h0a1.4,1.4,0,0,1-1.4-1.4v-.37a1.4,1.4,0,0,1,1.4-1.4h0a1.4,1.4,0,0,1,1.4,1.4v.37A1.4,1.4,0,0,1,258.09,158.09Z"/><rect class="cls-7" x="253.61" y="161.17" width="15.45" height="3.17" rx="1.49" ry="1.49" transform="translate(522.66 325.52) rotate(180)"/><rect class="cls-7" x="238.89" y="161.17" width="7.21" height="3.17" rx="1.02" ry="1.02" transform="translate(485 325.52) rotate(180)"/><path class="cls-7" d="M249.86,161.17h0a1.4,1.4,0,0,1,1.4,1.4v.37a1.4,1.4,0,0,1-1.4,1.4h0a1.4,1.4,0,0,1-1.4-1.4v-.37A1.4,1.4,0,0,1,249.86,161.17Z"/><rect class="cls-7" x="273.06" y="154.92" width="15.45" height="3.17" rx="1.49" ry="1.49"/><rect class="cls-7" x="296.01" y="154.92" width="7.21" height="3.17" rx="1.02" ry="1.02"/><path class="cls-7" d="M292.26,158.09h0a1.4,1.4,0,0,1-1.4-1.4v-.37a1.4,1.4,0,0,1,1.4-1.4h0a1.4,1.4,0,0,1,1.4,1.4v.37A1.4,1.4,0,0,1,292.26,158.09Z"/><rect class="cls-7" x="287.77" y="161.17" width="15.45" height="3.17" rx="1.49" ry="1.49" transform="translate(591 325.52) rotate(180)"/><rect class="cls-7" x="273.06" y="161.17" width="7.21" height="3.17" rx="1.02" ry="1.02" transform="translate(553.33 325.52) rotate(180)"/><path class="cls-7" d="M284,161.17h0a1.4,1.4,0,0,1,1.4,1.4v.37a1.4,1.4,0,0,1-1.4,1.4h0a1.4,1.4,0,0,1-1.4-1.4v-.37A1.4,1.4,0,0,1,284,161.17Z"/><rect class="cls-7" x="306.72" y="154.92" width="15.45" height="3.17" rx="1.49" ry="1.49"/><rect class="cls-7" x="329.67" y="154.92" width="7.21" height="3.17" rx="1.02" ry="1.02"/><path class="cls-7" d="M325.92,158.09h0a1.4,1.4,0,0,1-1.4-1.4v-.37a1.4,1.4,0,0,1,1.4-1.4h0a1.4,1.4,0,0,1,1.4,1.4v.37A1.4,1.4,0,0,1,325.92,158.09Z"/><rect class="cls-7" x="321.43" y="161.17" width="15.45" height="3.17" rx="1.49" ry="1.49" transform="translate(658.31 325.52) rotate(180)"/><rect class="cls-7" x="306.72" y="161.17" width="7.21" height="3.17" rx="1.02" ry="1.02" transform="translate(620.65 325.52) rotate(180)"/><path class="cls-7" d="M317.68,161.17h0a1.4,1.4,0,0,1,1.4,1.4v.37a1.4,1.4,0,0,1-1.4,1.4h0a1.4,1.4,0,0,1-1.4-1.4v-.37A1.4,1.4,0,0,1,317.68,161.17Z"/><rect class="cls-7" x="340.89" y="154.92" width="15.45" height="3.17" rx="1.49" ry="1.49"/><rect class="cls-7" x="363.84" y="154.92" width="7.21" height="3.17" rx="1.02" ry="1.02"/><path class="cls-7" d="M360.09,158.09h0a1.4,1.4,0,0,1-1.4-1.4v-.37a1.4,1.4,0,0,1,1.4-1.4h0a1.4,1.4,0,0,1,1.4,1.4v.37A1.4,1.4,0,0,1,360.09,158.09Z"/><rect class="cls-7" x="355.6" y="161.17" width="15.45" height="3.17" rx="1.49" ry="1.49" transform="translate(726.65 325.52) rotate(180)"/><rect class="cls-7" x="340.89" y="161.17" width="7.21" height="3.17" rx="1.02" ry="1.02" transform="translate(688.98 325.52) rotate(180)"/><path class="cls-7" d="M351.85,161.17h0a1.4,1.4,0,0,1,1.4,1.4v.37a1.4,1.4,0,0,1-1.4,1.4h0a1.4,1.4,0,0,1-1.4-1.4v-.37A1.4,1.4,0,0,1,351.85,161.17Z"/><rect class="cls-7" x="238.89" y="172.58" width="15.45" height="3.17" rx="1.49" ry="1.49"/><rect class="cls-7" x="261.85" y="172.58" width="7.21" height="3.17" rx="1.02" ry="1.02"/><path class="cls-7" d="M258.09,175.75h0a1.4,1.4,0,0,1-1.4-1.4V174a1.4,1.4,0,0,1,1.4-1.4h0a1.4,1.4,0,0,1,1.4,1.4v.37A1.4,1.4,0,0,1,258.09,175.75Z"/><rect class="cls-7" x="253.61" y="178.83" width="15.45" height="3.17" rx="1.49" ry="1.49" transform="translate(522.66 360.84) rotate(180)"/><rect class="cls-7" x="238.89" y="178.83" width="7.21" height="3.17" rx="1.02" ry="1.02" transform="translate(485 360.84) rotate(180)"/><path class="cls-7" d="M249.86,178.83h0a1.4,1.4,0,0,1,1.4,1.4v.37a1.4,1.4,0,0,1-1.4,1.4h0a1.4,1.4,0,0,1-1.4-1.4v-.37A1.4,1.4,0,0,1,249.86,178.83Z"/><rect class="cls-7" x="273.06" y="172.58" width="15.45" height="3.17" rx="1.49" ry="1.49"/><rect class="cls-7" x="296.01" y="172.58" width="7.21" height="3.17" rx="1.02" ry="1.02"/><path class="cls-7" d="M292.26,175.75h0a1.4,1.4,0,0,1-1.4-1.4V174a1.4,1.4,0,0,1,1.4-1.4h0a1.4,1.4,0,0,1,1.4,1.4v.37A1.4,1.4,0,0,1,292.26,175.75Z"/><rect class="cls-7" x="287.77" y="178.83" width="15.45" height="3.17" rx="1.49" ry="1.49" transform="translate(591 360.84) rotate(180)"/><rect class="cls-7" x="273.06" y="178.83" width="7.21" height="3.17" rx="1.02" ry="1.02" transform="translate(553.33 360.84) rotate(180)"/><path class="cls-7" d="M284,178.83h0a1.4,1.4,0,0,1,1.4,1.4v.37A1.4,1.4,0,0,1,284,182h0a1.4,1.4,0,0,1-1.4-1.4v-.37A1.4,1.4,0,0,1,284,178.83Z"/><rect class="cls-7" x="306.72" y="172.58" width="15.45" height="3.17" rx="1.49" ry="1.49"/><rect class="cls-7" x="329.67" y="172.58" width="7.21" height="3.17" rx="1.02" ry="1.02"/><path class="cls-7" d="M325.92,175.75h0a1.4,1.4,0,0,1-1.4-1.4V174a1.4,1.4,0,0,1,1.4-1.4h0a1.4,1.4,0,0,1,1.4,1.4v.37A1.4,1.4,0,0,1,325.92,175.75Z"/><rect class="cls-7" x="321.43" y="178.83" width="15.45" height="3.17" rx="1.49" ry="1.49" transform="translate(658.31 360.84) rotate(180)"/><rect class="cls-7" x="306.72" y="178.83" width="7.21" height="3.17" rx="1.02" ry="1.02" transform="translate(620.65 360.84) rotate(180)"/><path class="cls-7" d="M317.68,178.83h0a1.4,1.4,0,0,1,1.4,1.4v.37a1.4,1.4,0,0,1-1.4,1.4h0a1.4,1.4,0,0,1-1.4-1.4v-.37A1.4,1.4,0,0,1,317.68,178.83Z"/><rect class="cls-7" x="340.89" y="172.58" width="15.45" height="3.17" rx="1.49" ry="1.49"/><rect class="cls-7" x="363.84" y="172.58" width="7.21" height="3.17" rx="1.02" ry="1.02"/><path class="cls-7" d="M360.09,175.75h0a1.4,1.4,0,0,1-1.4-1.4V174a1.4,1.4,0,0,1,1.4-1.4h0a1.4,1.4,0,0,1,1.4,1.4v.37A1.4,1.4,0,0,1,360.09,175.75Z"/><rect class="cls-7" x="355.6" y="178.83" width="15.45" height="3.17" rx="1.49" ry="1.49" transform="translate(726.65 360.84) rotate(180)"/><rect class="cls-7" x="340.89" y="178.83" width="7.21" height="3.17" rx="1.02" ry="1.02" transform="translate(688.98 360.84) rotate(180)"/><path class="cls-7" d="M351.85,178.83h0a1.4,1.4,0,0,1,1.4,1.4v.37a1.4,1.4,0,0,1-1.4,1.4h0a1.4,1.4,0,0,1-1.4-1.4v-.37A1.4,1.4,0,0,1,351.85,178.83Z"/><rect class="cls-7" x="238.89" y="190.25" width="15.45" height="3.17" rx="1.49" ry="1.49"/><rect class="cls-7" x="261.85" y="190.25" width="7.21" height="3.17" rx="1.02" ry="1.02"/><path class="cls-7" d="M258.09,193.41h0a1.4,1.4,0,0,1-1.4-1.4v-.37a1.4,1.4,0,0,1,1.4-1.4h0a1.4,1.4,0,0,1,1.4,1.4V192A1.4,1.4,0,0,1,258.09,193.41Z"/><rect class="cls-7" x="253.61" y="196.5" width="15.45" height="3.17" rx="1.49" ry="1.49" transform="translate(522.66 396.16) rotate(180)"/><rect class="cls-7" x="238.89" y="196.5" width="7.21" height="3.17" rx="1.02" ry="1.02" transform="translate(485 396.16) rotate(180)"/><path class="cls-7" d="M249.86,196.5h0a1.4,1.4,0,0,1,1.4,1.4v.37a1.4,1.4,0,0,1-1.4,1.4h0a1.4,1.4,0,0,1-1.4-1.4v-.37A1.4,1.4,0,0,1,249.86,196.5Z"/><rect class="cls-7" x="273.06" y="190.25" width="15.45" height="3.17" rx="1.49" ry="1.49"/><rect class="cls-7" x="296.01" y="190.25" width="7.21" height="3.17" rx="1.02" ry="1.02"/><path class="cls-7" d="M292.26,193.41h0a1.4,1.4,0,0,1-1.4-1.4v-.37a1.4,1.4,0,0,1,1.4-1.4h0a1.4,1.4,0,0,1,1.4,1.4V192A1.4,1.4,0,0,1,292.26,193.41Z"/><rect class="cls-7" x="287.77" y="196.5" width="15.45" height="3.17" rx="1.49" ry="1.49" transform="translate(591 396.16) rotate(180)"/><rect class="cls-7" x="273.06" y="196.5" width="7.21" height="3.17" rx="1.02" ry="1.02" transform="translate(553.33 396.16) rotate(180)"/><path class="cls-7" d="M284,196.5h0a1.4,1.4,0,0,1,1.4,1.4v.37a1.4,1.4,0,0,1-1.4,1.4h0a1.4,1.4,0,0,1-1.4-1.4v-.37A1.4,1.4,0,0,1,284,196.5Z"/><rect class="cls-7" x="306.72" y="190.25" width="15.45" height="3.17" rx="1.49" ry="1.49"/><rect class="cls-7" x="329.67" y="190.25" width="7.21" height="3.17" rx="1.02" ry="1.02"/><path class="cls-7" d="M325.92,193.41h0a1.4,1.4,0,0,1-1.4-1.4v-.37a1.4,1.4,0,0,1,1.4-1.4h0a1.4,1.4,0,0,1,1.4,1.4V192A1.4,1.4,0,0,1,325.92,193.41Z"/><rect class="cls-7" x="321.43" y="196.5" width="15.45" height="3.17" rx="1.49" ry="1.49" transform="translate(658.31 396.16) rotate(180)"/><rect class="cls-7" x="306.72" y="196.5" width="7.21" height="3.17" rx="1.02" ry="1.02" transform="translate(620.65 396.16) rotate(180)"/><path class="cls-7" d="M317.68,196.5h0a1.4,1.4,0,0,1,1.4,1.4v.37a1.4,1.4,0,0,1-1.4,1.4h0a1.4,1.4,0,0,1-1.4-1.4v-.37A1.4,1.4,0,0,1,317.68,196.5Z"/><rect class="cls-7" x="340.89" y="190.25" width="15.45" height="3.17" rx="1.49" ry="1.49"/><rect class="cls-7" x="363.84" y="190.25" width="7.21" height="3.17" rx="1.02" ry="1.02"/><path class="cls-7" d="M360.09,193.41h0a1.4,1.4,0,0,1-1.4-1.4v-.37a1.4,1.4,0,0,1,1.4-1.4h0a1.4,1.4,0,0,1,1.4,1.4V192A1.4,1.4,0,0,1,360.09,193.41Z"/><rect class="cls-7" x="355.6" y="196.5" width="15.45" height="3.17" rx="1.49" ry="1.49" transform="translate(726.65 396.16) rotate(180)"/><rect class="cls-7" x="340.89" y="196.5" width="7.21" height="3.17" rx="1.02" ry="1.02" transform="translate(688.98 396.16) rotate(180)"/><path class="cls-7" d="M351.85,196.5h0a1.4,1.4,0,0,1,1.4,1.4v.37a1.4,1.4,0,0,1-1.4,1.4h0a1.4,1.4,0,0,1-1.4-1.4v-.37A1.4,1.4,0,0,1,351.85,196.5Z"/><rect class="cls-7" x="238.89" y="207.91" width="15.45" height="3.17" rx="1.49" ry="1.49"/><rect class="cls-7" x="261.85" y="207.91" width="7.21" height="3.17" rx="1.02" ry="1.02"/><path class="cls-7" d="M258.09,211.07h0a1.4,1.4,0,0,1-1.4-1.4v-.37a1.4,1.4,0,0,1,1.4-1.4h0a1.4,1.4,0,0,1,1.4,1.4v.37A1.4,1.4,0,0,1,258.09,211.07Z"/><rect class="cls-7" x="253.61" y="214.16" width="15.45" height="3.17" rx="1.49" ry="1.49" transform="translate(522.66 431.48) rotate(180)"/><rect class="cls-7" x="238.89" y="214.16" width="7.21" height="3.17" rx="1.02" ry="1.02" transform="translate(485 431.48) rotate(180)"/><path class="cls-7" d="M249.86,214.16h0a1.4,1.4,0,0,1,1.4,1.4v.37a1.4,1.4,0,0,1-1.4,1.4h0a1.4,1.4,0,0,1-1.4-1.4v-.37A1.4,1.4,0,0,1,249.86,214.16Z"/><rect class="cls-7" x="273.06" y="207.91" width="15.45" height="3.17" rx="1.49" ry="1.49"/><rect class="cls-7" x="296.01" y="207.91" width="7.21" height="3.17" rx="1.02" ry="1.02"/><path class="cls-7" d="M292.26,211.07h0a1.4,1.4,0,0,1-1.4-1.4v-.37a1.4,1.4,0,0,1,1.4-1.4h0a1.4,1.4,0,0,1,1.4,1.4v.37A1.4,1.4,0,0,1,292.26,211.07Z"/><rect class="cls-7" x="287.77" y="214.16" width="15.45" height="3.17" rx="1.49" ry="1.49" transform="translate(591 431.48) rotate(180)"/><rect class="cls-7" x="273.06" y="214.16" width="7.21" height="3.17" rx="1.02" ry="1.02" transform="translate(553.33 431.48) rotate(180)"/><path class="cls-7" d="M284,214.16h0a1.4,1.4,0,0,1,1.4,1.4v.37a1.4,1.4,0,0,1-1.4,1.4h0a1.4,1.4,0,0,1-1.4-1.4v-.37A1.4,1.4,0,0,1,284,214.16Z"/><rect class="cls-7" x="306.72" y="207.91" width="15.45" height="3.17" rx="1.49" ry="1.49"/><rect class="cls-7" x="329.67" y="207.91" width="7.21" height="3.17" rx="1.02" ry="1.02"/><path class="cls-7" d="M325.92,211.07h0a1.4,1.4,0,0,1-1.4-1.4v-.37a1.4,1.4,0,0,1,1.4-1.4h0a1.4,1.4,0,0,1,1.4,1.4v.37A1.4,1.4,0,0,1,325.92,211.07Z"/><rect class="cls-7" x="321.43" y="214.16" width="15.45" height="3.17" rx="1.49" ry="1.49" transform="translate(658.31 431.48) rotate(180)"/><rect class="cls-7" x="306.72" y="214.16" width="7.21" height="3.17" rx="1.02" ry="1.02" transform="translate(620.65 431.48) rotate(180)"/><path class="cls-7" d="M317.68,214.16h0a1.4,1.4,0,0,1,1.4,1.4v.37a1.4,1.4,0,0,1-1.4,1.4h0a1.4,1.4,0,0,1-1.4-1.4v-.37A1.4,1.4,0,0,1,317.68,214.16Z"/><rect class="cls-7" x="340.89" y="207.91" width="15.45" height="3.17" rx="1.49" ry="1.49"/><rect class="cls-7" x="363.84" y="207.91" width="7.21" height="3.17" rx="1.02" ry="1.02"/><path class="cls-7" d="M360.09,211.07h0a1.4,1.4,0,0,1-1.4-1.4v-.37a1.4,1.4,0,0,1,1.4-1.4h0a1.4,1.4,0,0,1,1.4,1.4v.37A1.4,1.4,0,0,1,360.09,211.07Z"/><rect class="cls-7" x="355.6" y="214.16" width="15.45" height="3.17" rx="1.49" ry="1.49" transform="translate(726.65 431.48) rotate(180)"/><rect class="cls-7" x="340.89" y="214.16" width="7.21" height="3.17" rx="1.02" ry="1.02" transform="translate(688.98 431.48) rotate(180)"/><path class="cls-7" d="M351.85,214.16h0a1.4,1.4,0,0,1,1.4,1.4v.37a1.4,1.4,0,0,1-1.4,1.4h0a1.4,1.4,0,0,1-1.4-1.4v-.37A1.4,1.4,0,0,1,351.85,214.16Z"/><path class="cls-8" d="M152.85,37.84a1.5,1.5,0,0,0-1.5-1.5h-94A12.4,12.4,0,0,0,44.9,48.68v94.16a1.5,1.5,0,0,0,1.5,1.5h0a1.5,1.5,0,0,0,1.5-1.5V48.68a9.4,9.4,0,0,1,9.43-9.34h94a1.5,1.5,0,0,0,1.5-1.5Z"/><path class="cls-8" d="M396.2,48.68V86.84a1.5,1.5,0,0,0,1.5,1.5h0a1.5,1.5,0,0,0,1.5-1.5V48.68a12.4,12.4,0,0,0-12.43-12.34H164.35a1.5,1.5,0,0,0-1.5,1.5h0a1.5,1.5,0,0,0,1.5,1.5H386.77A9.39,9.39,0,0,1,396.2,48.68Z"/><path class="cls-8" d="M397.7,98.34a1.5,1.5,0,0,0-1.5,1.5v170a7.73,7.73,0,0,1-7.71,7.72l-51.48,0a1.5,1.5,0,0,0-1.5,1.5h0a1.5,1.5,0,0,0,1.5,1.5l51.48,0a10.73,10.73,0,0,0,10.71-10.72v-170a1.5,1.5,0,0,0-1.5-1.5Z"/><path class="cls-8" d="M55.62,277.77a7.67,7.67,0,0,1-5.8-2.62,8.09,8.09,0,0,1-1.92-5.37V155.84a1.5,1.5,0,0,0-1.5-1.5h0a1.5,1.5,0,0,0-1.5,1.5V269.7a11.19,11.19,0,0,0,2.82,7.59,10.65,10.65,0,0,0,7.9,3.47h0L324,280.6a1.5,1.5,0,0,0,1.5-1.5h0a1.5,1.5,0,0,0-1.5-1.5l-268.39.17Z"/><path class="cls-8" d="M62.55,234V56a1.83,1.83,0,0,1,1.83-1.83h137a1.5,1.5,0,0,0,1.5-1.5h0a1.5,1.5,0,0,0-1.5-1.5h-137A4.83,4.83,0,0,0,59.55,56V234a4.83,4.83,0,0,0,4.83,4.83H216.93a1.5,1.5,0,0,0,1.5-1.5h0a1.5,1.5,0,0,0-1.5-1.5H64.39A1.83,1.83,0,0,1,62.55,234Z"/><path class="cls-8" d="M379.72,51.17H214.35a1.5,1.5,0,0,0-1.5,1.5h0a1.5,1.5,0,0,0,1.5,1.5H379.72A1.83,1.83,0,0,1,381.55,56V234a1.83,1.83,0,0,1-1.83,1.83H229.93a1.5,1.5,0,0,0-1.5,1.5h0a1.5,1.5,0,0,0,1.5,1.5H379.72a4.83,4.83,0,0,0,4.83-4.83V56A4.83,4.83,0,0,0,379.72,51.17Z"/><path class="cls-8" d="M163.55,277.77V293.5a1.5,1.5,0,0,0,1.5,1.5h0a1.5,1.5,0,0,0,1.5-1.5V280.77h111v36.41h-111V306.5a1.5,1.5,0,0,0-1.5-1.5h0a1.5,1.5,0,0,0-1.5,1.5v13.67h117V277.77Z"/><path class="cls-8" d="M125.83,325.09a5.8,5.8,0,0,1,5.81-4.92h7.53a1.5,1.5,0,0,0,1.5-1.5h0a1.5,1.5,0,0,0-1.5-1.5h-7.43a8.87,8.87,0,0,0-9,8.07,8.68,8.68,0,0,0,8.65,9.26H271.93a1.5,1.5,0,0,0,1.5-1.5h0a1.5,1.5,0,0,0-1.5-1.5H131.45A5.67,5.67,0,0,1,125.83,325.09Z"/><path class="cls-8" d="M312.35,317.17H152.18a1.5,1.5,0,0,0-1.5,1.5h0a1.5,1.5,0,0,0,1.5,1.5H312.46a5.8,5.8,0,0,1,5.82,4.92,5.67,5.67,0,0,1-5.62,6.41H284.93a1.5,1.5,0,0,0-1.5,1.5h0a1.5,1.5,0,0,0,1.5,1.5h27.72a8.68,8.68,0,0,0,8.65-9.26A8.87,8.87,0,0,0,312.35,317.17Z"/><path class="cls-4" d="M228.19,255.68a10.49,10.49,0,1,1-10.49-10.5A10.5,10.5,0,0,1,228.19,255.68Z"/><path class="cls-8" d="M217.7,267A11.33,11.33,0,1,1,229,255.67,11.35,11.35,0,0,1,217.7,267Zm0-20.08a8.74,8.74,0,1,0,8.74,8.74A8.75,8.75,0,0,0,217.7,246.93Z"/><path class="cls-9" d="M423.87,67.33l-31-55.45c-1.88-3.36-6.17-4.59-10-2.86h0c-4.5,2-6.53,7.31-4.34,11.29L409.14,76c2.13,3.87,7.36,4.86,11.36,2.15l.38-.26C424.52,75.45,425.82,70.82,423.87,67.33Z"/><path class="cls-8" d="M425.38,66.7,405.66,31.43a1.28,1.28,0,0,0-1.8-.46h0a1.28,1.28,0,0,0-.44,1.71L423.13,68c1.62,2.9.49,6.8-2.57,8.88l-.38.26a7.25,7.25,0,0,1-5.74,1.13,5.78,5.78,0,0,1-3.77-2.83L380,19.69a6.17,6.17,0,0,1-.37-5,7.66,7.66,0,0,1,4.12-4.51,7.33,7.33,0,0,1,3-.66,6,6,0,0,1,5.32,3l5.82,10.41a1.28,1.28,0,0,0,1.8.46h0a1.28,1.28,0,0,0,.44-1.71l-5.82-10.41c-2.21-3.95-7.22-5.41-11.66-3.41a10.24,10.24,0,0,0-5.51,6.05,8.73,8.73,0,0,0,.56,7L408.4,76.64a8.33,8.33,0,0,0,5.43,4.1A9.21,9.21,0,0,0,416,81a10.07,10.07,0,0,0,5.62-1.76L422,79C426.17,76.16,427.66,70.76,425.38,66.7Z"/><path class="cls-9" d="M405,57.27l-75.95-10.2A9.18,9.18,0,0,0,319,53.87h0a9.18,9.18,0,0,0,7.6,11.38L402.46,76a9.18,9.18,0,0,0,10.44-8.47l0-.51A9.18,9.18,0,0,0,405,57.27Z"/><path class="cls-9" d="M408.63,54.42,346.23,9.95a9.18,9.18,0,0,0-12.11,1.3h0a9.18,9.18,0,0,0,1.41,13.61l62.13,44.91a9.18,9.18,0,0,0,13.19-2.62l.27-.44A9.18,9.18,0,0,0,408.63,54.42Z"/><path class="cls-8" d="M405.56,56l-63.06-8.47a1.28,1.28,0,0,0-1.42,1v0a1.28,1.28,0,0,0,1.08,1.54l63.06,8.47A7.88,7.88,0,0,1,412,66.89l0,.27a8.19,8.19,0,0,1-2.74,5.69A7.81,7.81,0,0,1,403,74.68L327.13,64a7.88,7.88,0,0,1,1.1-15.69,8.05,8.05,0,0,1,1.05.07l1.85.25a1.28,1.28,0,0,0,1.42-1v0A1.28,1.28,0,0,0,331.47,46l-1.85-.25a10.47,10.47,0,0,0-7.36,19A10.87,10.87,0,0,0,327,66.56l75.68,10.67a10.37,10.37,0,0,0,1.45.1,10.47,10.47,0,0,0,10.45-9.77l0-.51A10.49,10.49,0,0,0,405.56,56Z"/><path class="cls-8" d="M409.77,53.37,347.37,8.89A10.47,10.47,0,0,0,332,22.25,10.91,10.91,0,0,0,335.36,26l4.72,3.41a1.28,1.28,0,0,0,1.74-.22l0,0a1.28,1.28,0,0,0-.24-1.85l-4.76-3.44a8.23,8.23,0,0,1-2.49-2.76A7.89,7.89,0,0,1,345.87,11l62.4,44.48A7.9,7.9,0,0,1,410.4,66l-.14.22A8.19,8.19,0,0,1,405.35,70a7.82,7.82,0,0,1-6.54-1.26L350.63,33.9a1.28,1.28,0,0,0-1.74.23l0,0a1.28,1.28,0,0,0,.24,1.84l48.17,34.82a10.5,10.5,0,0,0,6.14,2,10.39,10.39,0,0,0,2-.2,10.5,10.5,0,0,0,6.87-4.77l.27-.44A10.5,10.5,0,0,0,409.77,53.37Z"/><path class="cls-6" d="M374.3,149.88,271.46,125.45a6.27,6.27,0,0,1-4.65-7.55L274,87.57a6.27,6.27,0,0,1,7.55-4.65l102.84,24.43a6.27,6.27,0,0,1,4.65,7.55l-7.2,30.32A6.27,6.27,0,0,1,374.3,149.88Z"/><path class="cls-9" d="M361,101.78s13.95-30,40.22-22.95c24.09,6.45,20.2,36.08-13.38,36.33a12.38,12.38,0,0,0-12.11,9.75l0,.18a12.32,12.32,0,0,0,9.44,14.58c12.47,2.72,32.09,4.36,45.16-7.4l33.13,46.91V113.44s-27.83-68.86-79.54-59.87c-15.46,2.69-41.46,16.94-46,42.73Z"/><path class="cls-8" d="M432.73,69.69l0,0a1.26,1.26,0,0,0,0-1.91c-15.15-13.14-31.91-18.47-49.15-15.47-15.7,2.73-42.35,17-47,43.78l2.54.45c4.21-24.1,28.81-38.88,44.92-41.68,16.69-2.9,32.46,2.09,47,14.84A1.26,1.26,0,0,0,432.73,69.69Z"/><path class="cls-8" d="M440.85,149.53l1.91-1.77-12.29-17.41-1.08,1c-12.35,11.11-30.75,10-44,7.1a11.05,11.05,0,0,1-8.45-13.06l0-.18a11,11,0,0,1,10.86-8.73c19-.14,28.76-9.57,29.95-18.86,1-7.54-3.69-16.65-16.25-20-27-7.23-41.58,23.34-41.73,23.65l2.34,1.09c.14-.29,13.81-28.92,38.71-22.24C411.9,83,416,90.85,415.2,97.27c-1,8.17-9.92,16.47-27.4,16.6a13.61,13.61,0,0,0-13.37,10.78l0,.18a13.64,13.64,0,0,0,10.43,16.12c13.48,2.94,32.08,4.08,45.2-6.76Z"/><path class="cls-8" d="M463.38,110.37A127.78,127.78,0,0,0,444,79.31q-1.57-1.88-3.16-3.62a1.28,1.28,0,0,0-1.77-.1l0,0a1.27,1.27,0,0,0-.11,1.83q1.53,1.68,3,3.49a141.49,141.49,0,0,1,20.12,32.78v61.43l-14.32-20.28-1.92,1.76,17.54,24.83V110.37Z"/><rect class="cls-2" x="70.51" y="173.75" width="60.5" height="57" rx="8.75" ry="8.75"/><rect class="cls-8" x="77.63" y="228.68" width="3" height="116.29"/><rect class="cls-8" x="120.58" y="228.68" width="3" height="116.29"/><rect class="cls-8" x="99.26" y="219.82" width="3" height="46.8" transform="translate(-162.5 243.7) rotate(-67.6)"/><rect class="cls-8" x="77.36" y="241.72" width="46.8" height="3" transform="translate(-85.76 57.42) rotate(-22.61)"/><rect class="cls-8" x="99.26" y="248.6" width="3" height="46.8" transform="translate(-189.11 261.52) rotate(-67.6)"/><rect class="cls-8" x="77.36" y="270.5" width="46.8" height="3" transform="translate(-96.82 59.64) rotate(-22.61)"/><rect class="cls-8" x="99.26" y="277.38" width="3" height="46.8" transform="translate(-215.72 279.33) rotate(-67.6)"/><rect class="cls-8" x="77.36" y="299.28" width="46.8" height="3" transform="translate(-107.89 61.85) rotate(-22.61)"/><rect class="cls-8" x="99.26" y="306.16" width="3" height="46.8" transform="translate(-242.33 297.14) rotate(-67.6)"/><rect class="cls-8" x="77.36" y="328.06" width="46.8" height="3" transform="translate(-118.95 64.06) rotate(-22.61)"/><circle class="cls-1" cx="431.21" cy="298.55" r="3.63" transform="translate(-58.86 111.73) rotate(-13.83)"/><path class="cls-2" d="M425.67,254.21a4.1,4.1,0,1,1-3,5A4.1,4.1,0,0,1,425.67,254.21Zm.22.91a3.16,3.16,0,1,0,3.83,2.31A3.16,3.16,0,0,0,425.89,255.12Z"/><path class="cls-2" d="M342.15,324.19a4.1,4.1,0,1,1-3,5A4.1,4.1,0,0,1,342.15,324.19Zm.22.91a3.16,3.16,0,1,0,3.83,2.31A3.17,3.17,0,0,0,342.38,325.1Z"/><path class="cls-1" d="M421.73,278a.25.25,0,0,0,.17-.34l-.91-2.25-1.05.26.24,2.42a.25.25,0,0,0,.31.22Z"/><path class="cls-1" d="M423.45,273.43a.25.25,0,0,0-.34-.17l-2.25.91.26,1.05,2.42-.24a.25.25,0,0,0,.22-.31Z"/><path class="cls-1" d="M418.79,271.74a.25.25,0,0,0-.17.34l.91,2.25,1.05-.26-.24-2.42a.25.25,0,0,0-.31-.22Z"/><path class="cls-1" d="M417.08,276.31a.25.25,0,0,0,.34.17l2.25-.91-.26-1.05-2.42.24a.25.25,0,0,0-.22.31Z"/><path class="cls-1" d="M414,237.09a.25.25,0,0,0,.17-.34l-.91-2.25-1.05.26.24,2.42a.25.25,0,0,0,.31.22Z"/><path class="cls-1" d="M415.69,232.51a.25.25,0,0,0-.34-.17l-2.25.91.26,1.05,2.42-.24a.25.25,0,0,0,.22-.31Z"/><path class="cls-1" d="M411,230.81a.25.25,0,0,0-.17.34l.91,2.25,1.05-.26-.24-2.42a.25.25,0,0,0-.31-.22Z"/><path class="cls-1" d="M409.31,235.39a.25.25,0,0,0,.34.17l2.25-.91-.26-1.05-2.42.24a.25.25,0,0,0-.22.31Z"/><path class="cls-1" d="M334.49,308.78a.25.25,0,0,0,.17-.34l-.91-2.25-1.05.26.24,2.42a.25.25,0,0,0,.31.22Z"/><path class="cls-1" d="M336.21,304.2a.25.25,0,0,0-.34-.17l-2.25.91.26,1.05,2.42-.24a.25.25,0,0,0,.22-.31Z"/><path class="cls-1" d="M331.55,302.5a.25.25,0,0,0-.17.34l.91,2.25,1.05-.26-.24-2.42a.25.25,0,0,0-.31-.22Z"/><path class="cls-1" d="M329.83,307.08a.25.25,0,0,0,.34.17l2.25-.91-.26-1.05-2.42.24a.25.25,0,0,0-.22.31Z"/><circle class="cls-1" cx="361.3" cy="308.9" r="3.63" transform="translate(-63.37 95.33) rotate(-13.83)"/><path class="cls-2" d="M417.3,203.55a4.1,4.1,0,1,1-3,5A4.1,4.1,0,0,1,417.3,203.55Zm.22.91a3.16,3.16,0,1,0,3.83,2.31A3.16,3.16,0,0,0,417.52,204.46Z"/><path class="cls-2" d="M375,327.85a.25.25,0,0,0,.27-.27l-.19-2.42-1.08-.07-.5,2.38a.25.25,0,0,0,.23.3Z"/><path class="cls-2" d="M378,324a.25.25,0,0,0-.27-.27l-2.42.19-.07,1.08,2.38.5a.25.25,0,0,0,.3-.23Z"/><path class="cls-2" d="M374.09,321a.25.25,0,0,0-.27.27l.19,2.42,1.08.07.5-2.38a.25.25,0,0,0-.23-.3Z"/><path class="cls-2" d="M371.08,324.84a.25.25,0,0,0,.27.27l2.42-.19.07-1.08-2.38-.5a.25.25,0,0,0-.3.23Z"/><path class="cls-2" d="M383.57,302.39a.25.25,0,0,0,.36.13l2.13-1.16-.38-1-2.37.51a.25.25,0,0,0-.18.33Z"/><path class="cls-2" d="M388.32,303.58a.25.25,0,0,0,.13-.36l-1.16-2.13-1,.38.51,2.38a.25.25,0,0,0,.33.18Z"/><path class="cls-2" d="M389.47,298.76a.25.25,0,0,0-.36-.13L387,299.78l.38,1,2.37-.51a.25.25,0,0,0,.18-.33Z"/><path class="cls-2" d="M384.73,297.57a.25.25,0,0,0-.13.36l1.16,2.13,1-.38-.51-2.37a.25.25,0,0,0-.33-.18Z"/><path class="cls-2" d="M432.78,223.35l.39-1.59-1.09-1.23a.87.87,0,0,1,.58-1.44l1.64-.12.83-1.42a.87.87,0,0,1,1.55.11l.62,1.52,1.6.35a.86.86,0,0,1,.65.64h0a.86.86,0,0,1-.28.87L438,222.11l.16,1.64a.87.87,0,0,1-1.32.82l-1.39-.87-1.51.66a.86.86,0,0,1-1.18-1Zm.42-1.71h0Zm-.31-1.84h0Zm4,2.29a.87.87,0,0,1,.3-.74l1-.84-1.28-.28a.87.87,0,0,1-.62-.52l-.49-1.22-.67,1.13a.86.86,0,0,1-.68.42l-1.31.09.87,1a.87.87,0,0,1,.19.78l-.32,1.28,1.2-.52a.86.86,0,0,1,.8.06l1.12.69Zm1.74-1.49Z"/><path class="cls-2" d="M406.05,297.35l.39-1.59-1.09-1.23a.87.87,0,0,1,.58-1.44l1.64-.12.83-1.42a.87.87,0,0,1,1.55.11l.62,1.52,1.6.35a.86.86,0,0,1,.65.64h0a.86.86,0,0,1-.28.87l-1.26,1.06.16,1.64a.87.87,0,0,1-1.32.82l-1.39-.87-1.51.66a.86.86,0,0,1-1.18-1Zm.42-1.71h0Zm-.31-1.83h0Zm4,2.29a.87.87,0,0,1,.3-.74l1-.84-1.28-.28a.87.87,0,0,1-.62-.52l-.49-1.22-.67,1.13a.86.86,0,0,1-.68.42l-1.31.09.87,1a.87.87,0,0,1,.19.78l-.32,1.28,1.2-.52a.86.86,0,0,1,.8.06l1.12.69Zm1.74-1.49Z"/><path class="cls-10" d="M365.79,324.63l11.93-37.32a3.7,3.7,0,0,1,3.53-2.58h4.49a3.7,3.7,0,0,1,3.46,2.38L403.34,324a5.45,5.45,0,0,1-5.09,7.4h-27.5A5.21,5.21,0,0,1,365.79,324.63Z"/><path class="cls-8" d="M398.25,332.92h-27.5a6.71,6.71,0,0,1-6.39-8.75l1.43.46-1.43-.46,11.93-37.32a5.19,5.19,0,0,1,5-3.62h4.49a5.23,5.23,0,0,1,4.86,3.34l14.15,36.91a7,7,0,0,1-6.49,9.44Zm-17-46.69a2.2,2.2,0,0,0-2.1,1.53l-11.93,37.32a3.71,3.71,0,0,0,3.53,4.84h27.5a4,4,0,0,0,3.69-5.37l-14.15-36.91a2.22,2.22,0,0,0-2.06-1.42Z"/><rect class="cls-10" x="354.51" y="325.39" width="58" height="9.04" rx="3.69" ry="3.69"/><path class="cls-8" d="M408.82,335.94H358.21a5.2,5.2,0,0,1-5.19-5.19v-1.66a5.2,5.2,0,0,1,5.19-5.19h50.62a5.2,5.2,0,0,1,5.19,5.19v1.66A5.2,5.2,0,0,1,408.82,335.94Zm-50.62-9a2.19,2.19,0,0,0-2.19,2.19v1.66a2.19,2.19,0,0,0,2.19,2.19h50.62a2.19,2.19,0,0,0,2.19-2.19v-1.66a2.19,2.19,0,0,0-2.19-2.19Z"/><path class="cls-10" d="M301.79,328.63l11.93-37.32a3.7,3.7,0,0,1,3.53-2.58h4.49a3.7,3.7,0,0,1,3.46,2.38L339.34,328a5.45,5.45,0,0,1-5.09,7.4h-27.5A5.21,5.21,0,0,1,301.79,328.63Z"/><path class="cls-8" d="M334.25,336.92h-27.5a6.71,6.71,0,0,1-6.39-8.75l1.43.46-1.43-.46,11.93-37.32a5.19,5.19,0,0,1,5-3.62h4.49a5.23,5.23,0,0,1,4.86,3.34l14.15,36.91a7,7,0,0,1-6.49,9.44Zm-17-46.69a2.2,2.2,0,0,0-2.1,1.53l-11.93,37.32a3.71,3.71,0,0,0,3.53,4.84h27.5a4,4,0,0,0,3.69-5.37l-14.15-36.91a2.22,2.22,0,0,0-2.06-1.42Z"/><rect class="cls-10" x="290.51" y="329.39" width="58" height="9.04" rx="3.69" ry="3.69"/><path class="cls-8" d="M344.82,339.94H294.21a5.2,5.2,0,0,1-5.19-5.19v-1.66a5.2,5.2,0,0,1,5.19-5.19h50.62a5.2,5.2,0,0,1,5.19,5.19v1.66A5.2,5.2,0,0,1,344.82,339.94Zm-50.62-9a2.19,2.19,0,0,0-2.19,2.19v1.66a2.19,2.19,0,0,0,2.19,2.19h50.62a2.19,2.19,0,0,0,2.19-2.19v-1.66a2.19,2.19,0,0,0-2.19-2.19Z"/></g></g></svg>