<svg xmlns="http://www.w3.org/2000/svg" xmlns:xlink="http://www.w3.org/1999/xlink" viewBox="0 0 682.74 698.55"><defs><style>.cls-1{fill:#b0bec5;}.cls-2{isolation:isolate;}.cls-3{fill:#78909c;}.cls-4{fill:#455a64;}.cls-5{fill:#eceff1;}.cls-6{fill:#cfd8dc;}.cls-7{fill:#546e7a;}.cls-8{fill:#37474f;}.cls-11,.cls-9{mix-blend-mode:multiply;}.cls-10,.cls-11{fill:#b2ebf2;}.cls-12{fill:#ff7043;}.cls-13{opacity:0.8;}.cls-14{fill:#f1f8f7;}.cls-15{opacity:0.63;}.cls-16{fill:#c0ca33;}.cls-17{fill:#ffb300;}.cls-18{fill:#00acc1;}.cls-19{fill:#00838f;}.cls-20{fill:#0097a7;}.cls-21{fill:#afb42b;}.cls-22{fill:#4db6ac;}.cls-23{clip-path:url(#clip-path);}.cls-24{clip-path:url(#clip-path-2);}.cls-25{fill:#26a69a;}.cls-26{fill:#00897b;}.cls-27{fill:#80cbc4;}.cls-28{fill:#0094a6;}.cls-29{fill:#b2dfdb;}.cls-30{opacity:0.81;}.cls-31{fill:#ff8a65;}.cls-32{fill:#f4511e;}.cls-33{fill:#fff;}.cls-34{fill:#f9a825;}.cls-35{fill:#ef991b;}.cls-36{fill:#ffcb00;}</style><clipPath id="clip-path"><path class="cls-1" d="M402.06,60.3l5-2.93c2.29-1.33,5.27-1.49,8.59-.28l-5,2.93C407.32,58.81,404.35,59,402.06,60.3Z"/></clipPath><clipPath id="clip-path-2"><path class="cls-1" d="M430.12,97l-5,2.93c2.92-1.7,4.73-5.3,4.75-10.42l5-2.93C434.85,91.67,433,95.27,430.12,97Z"/></clipPath></defs><title>portfolio</title><g class="cls-2"><g id="Layer_2" data-name="Layer 2"><g id="objects"><path class="cls-3" d="M566.7,251.69q0-.27,0-.55c0-.08,0-.17,0-.25v-.11c0-.06,0-.13,0-.19s0-.37-.06-.55-.05-.38-.08-.57v0q0-.26-.09-.53t-.12-.59l0-.21,0-.12-.06-.26q-.07-.3-.16-.6l-.13-.44,0-.08,0-.08-.19-.58-.2-.58,0-.11,0-.08-.13-.36-.22-.55-.17-.4,0-.07,0-.07-.25-.55-.29-.6,0-.09-.06-.11-.24-.47-.33-.58-.16-.29-.06-.11c-.1-.17-.21-.33-.31-.49s-.3-.49-.46-.73l-.07-.12q-.35-.52-.71-1l-.5-.66-.42-.52h0l-.44-.51-.44-.49-.07-.08-.08-.08-.31-.33-.48-.47-.15-.14-.11-.1-.23-.22-.5-.44-.22-.18-.11-.09-.17-.14-.5-.38-.36-.26-.07,0-.06,0-.48-.32-.48-.29-.11-.06L249.12,55.84h0l-.36-.2-.46-.24-.3-.14-.07,0-.09,0-.45-.19-.46-.17-.08,0-.07,0-.3-.1-.47-.13-.22,0-.1,0-.14,0-.49-.08-.3,0h-.2l-.53,0h-.59a6.1,6.1,0,0,0-.65.09h0l-.14,0a5.72,5.72,0,0,0-.64.18l0,0a5.42,5.42,0,0,0-.87.4l-7.85,4.56a5.45,5.45,0,0,1,.87-.4,5.75,5.75,0,0,1,.69-.2l.14,0a6.32,6.32,0,0,1,.84-.11h.18a7.14,7.14,0,0,1,.86,0h.11a8.36,8.36,0,0,1,.93.14l.1,0a9.82,9.82,0,0,1,1,.28l.07,0q.53.18,1.07.43l.07,0c.37.17.74.36,1.12.58L547.61,237.27c.38.22.76.46,1.13.72l.07.05q.52.36,1,.77l.11.09q.49.4,1,.84l.12.11q.48.45.93.93l.08.08q.49.52,1,1.08h0a26.49,26.49,0,0,1,1.71,2.31c.16.24.31.48.46.73s.26.4.38.61l.16.29c.2.35.39.7.57,1.05l.06.12q.33.65.62,1.31l0,.06q.28.65.53,1.31l0,.08q.25.67.45,1.35l0,.08q.19.65.35,1.3l0,.12c.1.44.19.89.26,1.33v0c.07.45.12.89.16,1.33v.11c0,.44.05.88.05,1.31l-.64,225.49,7.85-4.56.64-225.49Q566.71,251.94,566.7,251.69Z"/><path class="cls-4" d="M547.61,237.27c6.23,3.6,11.27,12.32,11.25,19.49l-.64,225.49L229.31,292.35l.64-225.49c0-7.17,5.1-10,11.33-6.45Z"/><path class="cls-3" d="M363.6,594.87a16.5,16.5,0,0,1-1.5.76l-.45.19q-.61.26-1.25.48l-.46.16-.83.24-.62.17-.89.19-.6.12q-.89.16-1.81.25l-.57,0-1.08.07-.69,0H352l-.73,0-.81,0-.73-.06-.8-.09-.71-.1-.84-.15-.66-.13-1-.24-.54-.15c-.58-.17-1.15-.36-1.71-.58l-.23-.1a17.24,17.24,0,0,1-2.15-1l0,9.08a17.12,17.12,0,0,0,2.15,1l.14.07.09,0c.55.21,1.12.41,1.71.58l.14,0,.41.1,1,.24.26.06.4.07.84.15.34.06.38,0,.8.09.38,0,.36,0,.81,0,.4,0h1.63l.26,0,1.08-.07.43,0,.13,0q.92-.1,1.81-.25h.09l.51-.11.88-.19.62-.17.82-.23.18-.05.28-.11q.64-.22,1.25-.48l.45-.19a16.5,16.5,0,0,0,1.5-.76l195-113.3,0-9.08Z"/><path class="cls-3" d="M30.06,411.46l0,9.08c0,2.37,1.56,4.75,4.69,6.56L341.06,604l0-9.08L34.75,418C31.62,416.21,30.06,413.83,30.06,411.46Z"/><path class="cls-5" d="M558.56,481.58l-195,113.3c-6.2,3.6-16.29,3.6-22.51,0L34.75,418c-6.23-3.6-6.26-9.44-.06-13l195-113.3Z"/><polygon class="cls-6" points="516.36 476.98 384.02 553.89 95.88 387.52 228.22 310.62 516.36 476.98"/><polygon class="cls-4" points="442.83 413.56 424.71 425.18 292.94 349.1 311.06 337.48 442.83 413.56"/><polygon class="cls-5" points="543.07 252.03 542.5 452.96 244.36 280.82 244.93 79.9 543.07 252.03"/><polygon class="cls-7" points="262.59 492.59 221.05 516.73 154.17 478.12 195.71 453.98 262.59 492.59"/><polygon class="cls-3" points="57.77 416.03 63.92 412.46 90.85 428.01 84.7 431.58 57.77 416.03"/><polygon class="cls-3" points="69.73 408.77 75.88 405.2 102.81 420.75 96.66 424.32 69.73 408.77"/><polygon class="cls-8" points="236.04 339.04 246.57 332.93 246.58 329.62 236.05 335.73 236.04 339.04"/><polygon class="cls-8" points="236.05 335.73 220.69 326.86 220.68 330.17 236.04 339.04 236.05 335.73"/><polygon class="cls-7" points="246.58 329.62 231.21 320.75 220.69 326.86 236.05 335.73 246.58 329.62"/><polygon class="cls-8" points="256.52 350.86 267.04 344.75 267.05 341.44 256.53 347.55 256.52 350.86"/><polygon class="cls-8" points="241.16 338.68 241.15 341.99 256.52 350.86 256.53 347.55 241.16 338.68"/><polygon class="cls-7" points="241.16 338.68 256.53 347.55 267.05 341.44 251.69 332.57 241.16 338.68"/><polygon class="cls-8" points="276.99 362.68 287.51 356.56 287.52 353.26 277 359.37 276.99 362.68"/><polygon class="cls-8" points="261.63 350.5 261.63 353.81 276.99 362.68 277 359.37 261.63 350.5"/><polygon class="cls-7" points="261.63 350.5 277 359.37 287.52 353.26 272.16 344.39 261.63 350.5"/><polygon class="cls-8" points="297.46 374.5 307.99 368.38 307.99 365.08 297.47 371.19 297.46 374.5"/><polygon class="cls-8" points="282.11 362.32 282.1 365.63 297.46 374.5 297.47 371.19 282.11 362.32"/><polygon class="cls-7" points="282.11 362.32 297.47 371.19 307.99 365.08 292.63 356.21 282.11 362.32"/><polygon class="cls-8" points="317.94 386.32 328.46 380.2 328.47 376.9 317.94 383.01 317.94 386.32"/><polygon class="cls-8" points="302.58 374.14 302.57 377.45 317.94 386.32 317.94 383.01 302.58 374.14"/><polygon class="cls-7" points="302.58 374.14 317.94 383.01 328.47 376.9 313.1 368.03 302.58 374.14"/><polygon class="cls-8" points="338.41 398.14 348.93 392.02 348.94 388.72 338.42 394.83 338.41 398.14"/><polygon class="cls-8" points="323.05 385.96 323.04 389.27 338.41 398.14 338.42 394.83 323.05 385.96"/><polygon class="cls-7" points="323.05 385.96 338.42 394.83 348.94 388.72 333.58 379.85 323.05 385.96"/><polygon class="cls-8" points="358.89 409.96 369.41 403.85 369.42 400.54 358.9 406.65 358.89 409.96"/><polygon class="cls-8" points="343.53 397.79 343.52 401.09 358.89 409.96 358.9 406.65 343.53 397.79"/><polygon class="cls-7" points="343.53 397.79 358.9 406.65 369.42 400.54 354.05 391.67 343.53 397.79"/><polygon class="cls-8" points="379.36 421.78 389.88 415.67 389.89 412.36 379.37 418.48 379.36 421.78"/><polygon class="cls-8" points="364 409.61 364 412.91 379.36 421.78 379.37 418.48 364 409.61"/><polygon class="cls-7" points="364 409.61 379.37 418.48 389.89 412.36 374.53 403.49 364 409.61"/><polygon class="cls-8" points="399.83 433.6 410.35 427.49 410.36 424.18 399.84 430.3 399.83 433.6"/><polygon class="cls-8" points="384.48 421.43 384.47 424.73 399.83 433.6 399.84 430.3 384.48 421.43"/><polygon class="cls-7" points="384.48 421.43 399.84 430.3 410.36 424.18 395 415.31 384.48 421.43"/><polygon class="cls-8" points="420.31 445.42 430.83 439.31 430.84 436 420.31 442.12 420.31 445.42"/><polygon class="cls-8" points="404.95 433.25 404.94 436.55 420.31 445.42 420.31 442.12 404.95 433.25"/><polygon class="cls-7" points="404.95 433.25 420.31 442.12 430.84 436 415.47 427.13 404.95 433.25"/><polygon class="cls-8" points="440.78 457.24 451.3 451.13 451.31 447.82 440.79 453.94 440.78 457.24"/><polygon class="cls-8" points="425.42 445.06 425.41 448.37 440.78 457.24 440.79 453.94 425.42 445.06"/><polygon class="cls-7" points="425.42 445.06 440.79 453.94 451.31 447.82 435.95 438.95 425.42 445.06"/><polygon class="cls-8" points="461.25 469.06 471.77 462.95 471.78 459.64 461.26 465.75 461.25 469.06"/><polygon class="cls-8" points="445.9 456.88 445.89 460.19 461.25 469.06 461.26 465.75 445.9 456.88"/><polygon class="cls-7" points="461.26 465.75 471.78 459.64 456.42 450.77 445.9 456.88 461.26 465.75"/><polygon class="cls-8" points="481.73 480.89 492.25 474.77 492.26 471.46 481.74 477.58 481.73 480.89"/><polygon class="cls-8" points="466.37 468.71 466.37 472.02 481.73 480.89 481.74 477.58 466.37 468.71"/><polygon class="cls-7" points="466.37 468.71 481.74 477.58 492.26 471.46 476.9 462.59 466.37 468.71"/><polygon class="cls-8" points="223.59 355.38 238.85 346.51 238.86 343.2 223.59 352.07 223.59 355.38"/><polygon class="cls-8" points="223.59 352.07 200.38 338.67 200.37 341.98 223.59 355.38 223.59 352.07"/><polygon class="cls-7" points="238.86 343.2 215.64 329.8 200.38 338.67 223.59 352.07 238.86 343.2"/><polygon class="cls-8" points="244.59 367.5 259.85 358.63 259.86 355.33 244.6 364.2 244.59 367.5"/><polygon class="cls-8" points="229.23 355.33 229.22 358.63 244.59 367.5 244.6 364.2 229.23 355.33"/><polygon class="cls-7" points="244.6 364.2 259.86 355.33 244.5 346.46 229.23 355.33 244.6 364.2"/><polygon class="cls-8" points="265.06 379.32 280.32 370.45 280.33 367.15 265.07 376.02 265.06 379.32"/><polygon class="cls-8" points="249.71 367.15 249.7 370.45 265.06 379.32 265.07 376.02 249.71 367.15"/><polygon class="cls-7" points="249.71 367.15 265.07 376.02 280.33 367.15 264.97 358.28 249.71 367.15"/><polygon class="cls-8" points="285.54 391.15 300.8 382.28 300.81 378.97 285.55 387.84 285.54 391.15"/><polygon class="cls-8" points="270.18 378.97 270.17 382.28 285.54 391.15 285.55 387.84 270.18 378.97"/><polygon class="cls-7" points="270.18 378.97 285.55 387.84 300.81 378.97 285.45 370.1 270.18 378.97"/><polygon class="cls-8" points="306.01 402.97 321.27 394.1 321.28 390.79 306.02 399.66 306.01 402.97"/><polygon class="cls-8" points="290.66 390.79 290.65 394.1 306.01 402.97 306.02 399.66 290.66 390.79"/><polygon class="cls-7" points="290.66 390.79 306.02 399.66 321.28 390.79 305.92 381.92 290.66 390.79"/><polygon class="cls-8" points="326.48 414.79 341.75 405.92 341.76 402.61 326.49 411.48 326.48 414.79"/><polygon class="cls-8" points="311.13 402.61 311.12 405.92 326.48 414.79 326.49 411.48 311.13 402.61"/><polygon class="cls-7" points="311.13 402.61 326.49 411.48 341.76 402.61 326.39 393.74 311.13 402.61"/><polygon class="cls-8" points="346.96 426.61 362.22 417.74 362.23 414.43 346.97 423.3 346.96 426.61"/><polygon class="cls-8" points="331.6 414.43 331.59 417.74 346.96 426.61 346.97 423.3 331.6 414.43"/><polygon class="cls-7" points="331.6 414.43 346.97 423.3 362.23 414.43 346.87 405.56 331.6 414.43"/><polygon class="cls-8" points="367.43 438.43 382.69 429.56 382.7 426.25 367.44 435.12 367.43 438.43"/><polygon class="cls-8" points="352.07 426.25 352.06 429.56 367.43 438.43 367.44 435.12 352.07 426.25"/><polygon class="cls-7" points="352.07 426.25 367.44 435.12 382.7 426.25 367.34 417.38 352.07 426.25"/><polygon class="cls-8" points="387.91 450.25 403.17 441.38 403.18 438.07 387.92 446.94 387.91 450.25"/><polygon class="cls-8" points="372.55 438.07 372.54 441.38 387.91 450.25 387.92 446.94 372.55 438.07"/><polygon class="cls-7" points="372.55 438.07 387.92 446.94 403.18 438.07 387.82 429.2 372.55 438.07"/><polygon class="cls-8" points="408.38 462.07 423.64 453.2 423.65 449.89 408.39 458.76 408.38 462.07"/><polygon class="cls-8" points="408.39 458.76 393.03 449.89 393.02 453.2 408.38 462.07 408.39 458.76"/><polygon class="cls-7" points="423.65 449.89 408.29 441.02 393.03 449.89 408.39 458.76 423.65 449.89"/><polygon class="cls-8" points="428.85 473.89 444.12 465.02 444.13 461.71 428.86 470.58 428.85 473.89"/><polygon class="cls-8" points="428.86 470.58 413.5 461.71 413.49 465.02 428.85 473.89 428.86 470.58"/><polygon class="cls-7" points="444.13 461.71 428.76 452.84 413.5 461.71 428.86 470.58 444.13 461.71"/><polygon class="cls-8" points="461.42 492.69 476.68 483.82 476.69 480.51 461.42 489.38 461.42 492.69"/><polygon class="cls-8" points="434.67 473.94 434.66 477.25 461.42 492.69 461.42 489.38 434.67 473.94"/><polygon class="cls-7" points="434.67 473.94 461.42 489.38 476.69 480.51 449.94 465.07 434.67 473.94"/><polygon class="cls-8" points="215.89 374.47 231.16 365.6 231.17 362.29 215.9 371.16 215.89 374.47"/><polygon class="cls-8" points="215.9 371.16 180.07 350.47 180.06 353.78 215.89 374.47 215.9 371.16"/><polygon class="cls-7" points="231.17 362.29 195.33 341.6 180.07 350.47 215.9 371.16 231.17 362.29"/><polygon class="cls-8" points="236.37 386.29 251.63 377.42 251.64 374.11 236.38 382.98 236.37 386.29"/><polygon class="cls-8" points="221.01 374.11 221 377.42 236.37 386.29 236.38 382.98 221.01 374.11"/><polygon class="cls-7" points="236.38 382.98 251.64 374.11 236.28 365.24 221.01 374.11 236.38 382.98"/><polygon class="cls-8" points="256.84 398.11 272.1 389.24 272.11 385.93 256.85 394.8 256.84 398.11"/><polygon class="cls-8" points="241.49 385.93 241.48 389.24 256.84 398.11 256.85 394.8 241.49 385.93"/><polygon class="cls-7" points="256.85 394.8 272.11 385.93 256.75 377.06 241.49 385.93 256.85 394.8"/><polygon class="cls-8" points="292.59 397.75 277.32 406.62 277.31 409.93 292.58 401.06 292.59 397.75"/><polygon class="cls-8" points="261.96 397.75 261.95 401.06 277.31 409.93 277.32 406.62 261.96 397.75"/><polygon class="cls-7" points="292.59 397.75 277.22 388.88 261.96 397.75 277.32 406.62 292.59 397.75"/><polygon class="cls-8" points="297.79 421.75 313.05 412.88 313.06 409.57 297.8 418.44 297.79 421.75"/><polygon class="cls-8" points="297.8 418.44 282.43 409.57 282.42 412.88 297.79 421.75 297.8 418.44"/><polygon class="cls-7" points="313.06 409.57 297.69 400.7 282.43 409.57 297.8 418.44 313.06 409.57"/><polygon class="cls-8" points="318.26 433.57 333.53 424.7 333.54 421.39 318.27 430.26 318.26 433.57"/><polygon class="cls-8" points="318.27 430.26 302.91 421.39 302.9 424.7 318.26 433.57 318.27 430.26"/><polygon class="cls-7" points="333.54 421.39 318.17 412.52 302.91 421.39 318.27 430.26 333.54 421.39"/><polygon class="cls-8" points="338.74 445.39 354 436.52 354.01 433.21 338.75 442.08 338.74 445.39"/><polygon class="cls-8" points="338.75 442.08 323.38 433.21 323.37 436.52 338.74 445.39 338.75 442.08"/><polygon class="cls-7" points="354.01 433.21 338.65 424.34 323.38 433.21 338.75 442.08 354.01 433.21"/><polygon class="cls-8" points="359.21 457.21 374.47 448.34 374.48 445.03 359.22 453.9 359.21 457.21"/><polygon class="cls-8" points="359.22 453.9 343.86 445.03 343.85 448.34 359.21 457.21 359.22 453.9"/><polygon class="cls-7" points="374.48 445.03 359.12 436.16 343.86 445.03 359.22 453.9 374.48 445.03"/><polygon class="cls-8" points="379.68 469.03 394.95 460.16 394.95 456.85 379.69 465.72 379.68 469.03"/><polygon class="cls-8" points="379.69 465.72 364.33 456.85 364.32 460.16 379.68 469.03 379.69 465.72"/><polygon class="cls-7" points="394.95 456.85 379.59 447.98 364.33 456.85 379.69 465.72 394.95 456.85"/><polygon class="cls-8" points="415.43 468.67 400.16 477.54 400.15 480.85 415.42 471.98 415.43 468.67"/><polygon class="cls-8" points="384.8 468.67 384.79 471.98 400.15 480.85 400.16 477.54 384.8 468.67"/><polygon class="cls-7" points="415.43 468.67 400.06 459.8 384.8 468.67 400.16 477.54 415.43 468.67"/><polygon class="cls-8" points="175.11 374.45 190.38 365.58 190.38 362.27 175.12 371.14 175.11 374.45"/><polygon class="cls-8" points="175.12 371.14 159.76 362.27 159.75 365.58 175.11 374.45 175.12 371.14"/><polygon class="cls-7" points="190.38 362.27 175.02 353.4 159.76 362.27 175.12 371.14 190.38 362.27"/><polygon class="cls-8" points="195.59 386.27 210.85 377.4 210.86 374.09 195.59 382.96 195.59 386.27"/><polygon class="cls-8" points="180.23 374.09 180.22 377.4 195.59 386.27 195.59 382.96 180.23 374.09"/><polygon class="cls-7" points="180.23 374.09 195.59 382.96 210.86 374.09 195.49 365.22 180.23 374.09"/><polygon class="cls-8" points="216.06 398.09 231.32 389.22 231.33 385.91 216.07 394.78 216.06 398.09"/><polygon class="cls-8" points="200.7 385.91 200.69 389.22 216.06 398.09 216.07 394.78 200.7 385.91"/><polygon class="cls-7" points="200.7 385.91 216.07 394.78 231.33 385.91 215.97 377.04 200.7 385.91"/><polygon class="cls-8" points="236.53 409.91 251.79 401.04 251.8 397.73 236.54 406.6 236.53 409.91"/><polygon class="cls-8" points="221.18 397.73 221.17 401.04 236.53 409.91 236.54 406.6 221.18 397.73"/><polygon class="cls-7" points="221.18 397.73 236.54 406.6 251.8 397.73 236.44 388.86 221.18 397.73"/><polygon class="cls-8" points="257 421.73 272.27 412.86 272.28 409.55 257.01 418.42 257 421.73"/><polygon class="cls-8" points="257.01 418.42 241.65 409.55 241.64 412.86 257 421.73 257.01 418.42"/><polygon class="cls-7" points="272.28 409.55 256.91 400.68 241.65 409.55 257.01 418.42 272.28 409.55"/><polygon class="cls-8" points="277.48 433.55 292.74 424.68 292.75 421.37 277.49 430.24 277.48 433.55"/><polygon class="cls-8" points="277.49 430.24 262.12 421.37 262.11 424.68 277.48 433.55 277.49 430.24"/><polygon class="cls-7" points="292.75 421.37 277.39 412.5 262.12 421.37 277.49 430.24 292.75 421.37"/><polygon class="cls-8" points="297.95 445.37 313.22 436.5 313.23 433.19 297.96 442.06 297.95 445.37"/><polygon class="cls-8" points="297.96 442.06 282.6 433.19 282.59 436.5 297.95 445.37 297.96 442.06"/><polygon class="cls-7" points="313.23 433.19 297.86 424.32 282.6 433.19 297.96 442.06 313.23 433.19"/><polygon class="cls-8" points="318.43 457.19 333.69 448.32 333.7 445.01 318.44 453.88 318.43 457.19"/><polygon class="cls-8" points="318.44 453.88 303.07 445.01 303.06 448.32 318.43 457.19 318.44 453.88"/><polygon class="cls-7" points="333.7 445.01 318.34 436.14 303.07 445.01 318.44 453.88 333.7 445.01"/><polygon class="cls-8" points="338.9 469.01 354.16 460.14 354.17 456.83 338.91 465.7 338.9 469.01"/><polygon class="cls-8" points="338.91 465.7 323.55 456.83 323.54 460.14 338.9 469.01 338.91 465.7"/><polygon class="cls-7" points="354.17 456.83 338.81 447.96 323.55 456.83 338.91 465.7 354.17 456.83"/><polygon class="cls-8" points="359.37 480.83 374.64 471.96 374.65 468.65 359.38 477.52 359.37 480.83"/><polygon class="cls-8" points="359.38 477.52 344.02 468.65 344.01 471.96 359.37 480.83 359.38 477.52"/><polygon class="cls-7" points="374.65 468.65 359.28 459.78 344.02 468.65 359.38 477.52 374.65 468.65"/><polygon class="cls-8" points="379.85 492.65 395.11 483.78 395.12 480.47 379.86 489.35 379.85 492.65"/><polygon class="cls-8" points="379.86 489.35 364.49 480.47 364.48 483.78 379.85 492.65 379.86 489.35"/><polygon class="cls-7" points="395.12 480.47 379.75 471.6 364.49 480.47 379.86 489.35 395.12 480.47"/><polygon class="cls-8" points="404.79 480.45 404.78 483.75 423.24 494.41 426.1 492.75 404.79 480.45"/><polygon class="cls-8" points="400.32 504.47 415.58 495.6 415.59 492.29 400.33 501.17 400.32 504.47"/><polygon class="cls-8" points="400.33 501.17 384.96 492.29 384.95 495.6 400.32 504.47 400.33 501.17"/><polygon class="cls-7" points="415.59 492.29 400.23 483.42 384.96 492.29 400.33 501.17 415.59 492.29"/><polygon class="cls-8" points="436.79 507.84 456.5 496.39 456.51 493.08 436.8 504.54 436.79 507.84"/><polygon class="cls-8" points="429.16 508.97 429.15 512.28 436.79 507.84 436.8 504.54 429.16 508.97"/><polygon class="cls-8" points="405.5 504.71 405.49 508.02 421.04 517 421.05 513.69 405.5 504.71"/><polygon class="cls-8" points="421.05 513.69 421.04 517 429.15 512.28 429.16 508.97 421.05 513.69"/><polygon class="cls-7" points="440.62 483.9 419.67 471.8 404.79 480.45 426.1 492.75 423.24 494.41 421.25 495.56 413.62 500 405.5 504.71 421.05 513.69 429.16 508.97 436.8 504.54 456.51 493.08 444.95 486.4 440.62 483.9"/><polygon class="cls-8" points="162.65 390.79 177.92 381.92 177.93 378.61 162.66 387.48 162.65 390.79"/><polygon class="cls-8" points="162.66 387.48 139.44 374.08 139.43 377.38 162.65 390.79 162.66 387.48"/><polygon class="cls-7" points="177.93 378.61 154.71 365.21 139.44 374.08 162.66 387.48 177.93 378.61"/><polygon class="cls-8" points="183.13 402.61 198.4 393.74 198.41 390.44 183.14 399.31 183.13 402.61"/><polygon class="cls-8" points="167.78 390.44 167.77 393.74 183.13 402.61 183.14 399.31 167.78 390.44"/><polygon class="cls-7" points="183.14 399.31 198.41 390.44 183.04 381.56 167.78 390.44 183.14 399.31"/><polygon class="cls-8" points="203.6 414.43 218.87 405.56 218.88 402.25 203.61 411.13 203.6 414.43"/><polygon class="cls-8" points="203.61 411.13 188.25 402.25 188.24 405.56 203.6 414.43 203.61 411.13"/><polygon class="cls-7" points="218.88 402.25 203.51 393.38 188.25 402.25 203.61 411.13 218.88 402.25"/><polygon class="cls-8" points="224.08 426.25 239.34 417.38 239.35 414.07 224.09 422.94 224.08 426.25"/><polygon class="cls-8" points="224.09 422.94 208.73 414.08 208.72 417.39 224.08 426.25 224.09 422.94"/><polygon class="cls-7" points="239.35 414.07 223.99 405.21 208.73 414.08 224.09 422.94 239.35 414.07"/><polygon class="cls-8" points="244.56 438.08 259.82 429.21 259.83 425.9 244.56 434.77 244.56 438.08"/><polygon class="cls-8" points="244.56 434.77 229.2 425.9 229.19 429.21 244.56 438.08 244.56 434.77"/><polygon class="cls-7" points="259.83 425.9 244.47 417.03 229.2 425.9 244.56 434.77 259.83 425.9"/><polygon class="cls-8" points="265.03 449.9 280.29 441.03 280.3 437.72 265.04 446.59 265.03 449.9"/><polygon class="cls-8" points="265.04 446.59 249.67 437.72 249.66 441.03 265.03 449.9 265.04 446.59"/><polygon class="cls-7" points="280.3 437.72 264.94 428.85 249.67 437.72 265.04 446.59 280.3 437.72"/><polygon class="cls-8" points="285.5 461.72 300.76 452.85 300.77 449.54 285.51 458.41 285.5 461.72"/><polygon class="cls-8" points="285.51 458.41 270.15 449.54 270.14 452.85 285.5 461.72 285.51 458.41"/><polygon class="cls-7" points="300.77 449.54 285.41 440.67 270.15 449.54 285.51 458.41 300.77 449.54"/><polygon class="cls-8" points="305.97 473.54 321.24 464.67 321.25 461.36 305.98 470.23 305.97 473.54"/><polygon class="cls-8" points="305.98 470.23 290.62 461.36 290.61 464.67 305.97 473.54 305.98 470.23"/><polygon class="cls-7" points="321.25 461.36 305.88 452.49 290.62 461.36 305.98 470.23 321.25 461.36"/><polygon class="cls-8" points="326.45 485.36 341.71 476.49 341.72 473.18 326.46 482.05 326.45 485.36"/><polygon class="cls-8" points="326.46 482.05 311.09 473.18 311.08 476.49 326.45 485.36 326.46 482.05"/><polygon class="cls-7" points="341.72 473.18 326.36 464.31 311.09 473.18 326.46 482.05 341.72 473.18"/><polygon class="cls-8" points="346.93 497.18 362.19 488.31 362.2 485 346.93 493.87 346.93 497.18"/><polygon class="cls-8" points="346.93 493.87 331.57 485 331.56 488.31 346.93 497.18 346.93 493.87"/><polygon class="cls-7" points="362.2 485 346.83 476.13 331.57 485 346.93 493.87 362.2 485"/><polygon class="cls-8" points="380 516.28 395.27 507.41 395.28 504.1 380.01 512.97 380 516.28"/><polygon class="cls-8" points="380.01 512.97 351.86 496.72 351.85 500.02 380 516.28 380.01 512.97"/><polygon class="cls-7" points="395.28 504.1 367.13 487.85 351.86 496.72 380.01 512.97 395.28 504.1"/><polygon class="cls-8" points="400.48 528.1 415.75 519.23 415.76 515.92 400.49 524.79 400.48 528.1"/><polygon class="cls-8" points="385.13 515.92 385.12 519.23 400.48 528.1 400.49 524.79 385.13 515.92"/><polygon class="cls-7" points="385.13 515.92 400.49 524.79 415.76 515.92 400.39 507.05 385.13 515.92"/><polygon class="cls-8" points="149.76 385.88 134.5 394.75 134.49 398.06 149.75 389.19 149.76 385.88"/><polygon class="cls-8" points="119.14 385.88 119.13 389.19 134.49 398.06 134.5 394.75 119.14 385.88"/><polygon class="cls-7" points="149.76 385.88 134.4 377.01 119.14 385.88 134.5 394.75 149.76 385.88"/><polygon class="cls-8" points="170.24 397.7 154.97 406.57 154.96 409.88 170.23 401.01 170.24 397.7"/><polygon class="cls-8" points="139.61 397.7 139.6 401.01 154.96 409.88 154.97 406.57 139.61 397.7"/><polygon class="cls-7" points="170.24 397.7 154.87 388.83 139.61 397.7 154.97 406.57 170.24 397.7"/><polygon class="cls-8" points="190.71 409.52 175.44 418.39 175.44 421.7 190.7 412.83 190.71 409.52"/><polygon class="cls-8" points="160.08 409.52 160.07 412.83 175.44 421.7 175.44 418.39 160.08 409.52"/><polygon class="cls-7" points="190.71 409.52 175.34 400.65 160.08 409.52 175.44 418.39 190.71 409.52"/><polygon class="cls-8" points="211.18 421.34 195.92 430.21 195.91 433.52 211.17 424.65 211.18 421.34"/><polygon class="cls-8" points="180.55 421.34 180.54 424.65 195.91 433.52 195.92 430.21 180.55 421.34"/><polygon class="cls-7" points="211.18 421.34 195.82 412.47 180.55 421.34 195.92 430.21 211.18 421.34"/><polygon class="cls-8" points="313.55 480.44 298.29 489.31 298.28 492.62 313.54 483.75 313.55 480.44"/><polygon class="cls-8" points="201.03 433.16 201.02 436.47 298.28 492.62 298.29 489.31 201.03 433.16"/><polygon class="cls-7" points="313.55 480.44 216.29 424.29 201.03 433.16 298.29 489.31 313.55 480.44"/><polygon class="cls-8" points="334.02 492.26 318.76 501.13 318.75 504.44 334.01 495.57 334.02 492.26"/><polygon class="cls-8" points="303.4 492.26 303.39 495.57 318.75 504.44 318.76 501.13 303.4 492.26"/><polygon class="cls-7" points="334.02 492.26 318.66 483.39 303.4 492.26 318.76 501.13 334.02 492.26"/><polygon class="cls-8" points="354.5 504.08 339.23 512.95 339.22 516.26 354.49 507.39 354.5 504.08"/><polygon class="cls-8" points="323.87 504.08 323.86 507.39 339.22 516.26 339.23 512.95 323.87 504.08"/><polygon class="cls-7" points="354.5 504.08 339.13 495.21 323.87 504.08 339.23 512.95 354.5 504.08"/><polygon class="cls-8" points="374.97 515.9 359.7 524.77 359.7 528.08 374.96 519.21 374.97 515.9"/><polygon class="cls-8" points="344.34 515.9 344.33 519.21 359.7 528.08 359.7 524.77 344.34 515.9"/><polygon class="cls-7" points="374.97 515.9 359.61 507.03 344.34 515.9 359.7 524.77 374.97 515.9"/><polygon class="cls-8" points="395.45 527.73 380.18 536.6 380.17 539.9 395.44 531.03 395.45 527.73"/><polygon class="cls-8" points="364.82 527.73 364.81 531.03 380.17 539.9 380.18 536.6 364.82 527.73"/><polygon class="cls-7" points="395.45 527.73 380.08 518.86 364.82 527.73 380.18 536.6 395.45 527.73"/><g class="cls-9"><polygon class="cls-10" points="491.18 295.38 491.04 343.62 533.02 367.86 533.16 319.62 491.18 295.38"/></g><polygon class="cls-11" points="255.51 132.61 255.33 197.25 311.57 229.72 311.76 165.09 255.51 132.61"/><g class="cls-9"><polygon class="cls-10" points="385.93 281.24 385.75 345.88 442 378.35 442.18 313.72 385.93 281.24"/></g><g class="cls-9"><polygon class="cls-10" points="320.7 243.5 320.51 308.13 376.76 340.61 376.94 275.98 320.7 243.5"/></g><polygon class="cls-11" points="442.13 232.54 254.34 124.12 254.49 96.04 442.13 204.37 442.13 232.54"/><polygon class="cls-11" points="311.58 302.9 255.33 270.43 255.41 243.12 311.65 275.6 311.58 302.9"/><polygon class="cls-11" points="449.36 380.25 449.36 211.09 482.66 230.32 482.66 399.17 449.36 380.25"/><g class="cls-9"><polygon class="cls-10" points="500.82 234.35 500.68 282.59 542.67 306.83 542.81 258.59 500.82 234.35"/></g><polygon class="cls-12" points="320.7 169.91 320.51 234.55 376.76 267.02 376.94 202.39 320.7 169.91"/><polygon class="cls-12" points="167.22 161.41 163.56 159.29 163.56 108.69 335 207.67 333.17 210.84 167.22 115.03 167.22 161.41"/><g class="cls-13"><polygon class="cls-14" points="304.94 139.02 304.76 203.65 361.01 236.13 361.19 171.49 304.94 139.02"/></g><g class="cls-15"><polygon class="cls-12" points="343.26 204.26 343.24 212.17 347.15 214.43 347.17 206.52 343.26 204.26"/><polygon class="cls-12" points="336.76 193.84 336.72 208.41 340.63 210.66 340.67 196.1 336.76 193.84"/><polygon class="cls-12" points="330.26 183.58 330.2 204.64 334.11 206.9 334.17 185.84 330.26 183.58"/><polygon class="cls-12" points="323.76 173.16 323.68 200.88 327.59 203.13 327.67 175.42 323.76 173.16"/><polygon class="cls-12" points="317.27 158.99 317.16 197.11 321.07 199.37 321.18 161.25 317.27 158.99"/></g><polygon class="cls-16" points="86.27 280.05 86.27 318.69 261.37 217.63 263.2 220.79 82.61 325.03 82.61 277.94 86.27 280.05"/><polygon class="cls-16" points="311.68 267.21 255.43 234.73 255.51 206.61 311.76 239.08 311.68 267.21"/><polygon class="cls-17" points="491.18 356.4 491.04 404.65 533.02 428.89 533.16 380.64 491.18 356.4"/><g class="cls-13"><polygon class="cls-14" points="477.77 329 477.63 377.24 519.62 401.48 519.76 353.24 477.77 329"/></g><g class="cls-15"><polygon class="cls-17" points="496.85 363.58 496.89 346.6 500.6 348.74 500.55 365.72 496.85 363.58"/><path class="cls-17" d="M494.42,350.32l1,.09V355l-.35,0c-2.27.2-3.68,2.19-3.69,5.2A16.21,16.21,0,0,0,498.67,373c4.06,2.34,7.38.45,7.39-4.21a16,16,0,0,0-3.65-9.44l-.34-.43v-4.64l1,1c4.1,4.37,6.74,10.49,6.72,15.62,0,7-5,9.85-11.11,6.33s-11.05-12.1-11-19.11C487.64,353,490.31,349.95,494.42,350.32Z"/></g><polygon class="cls-5" points="134.4 141.3 134.22 205.93 190.47 238.41 190.65 173.77 134.4 141.3"/><polygon class="cls-6" points="172.72 206.54 172.7 214.45 176.6 216.71 176.63 208.8 172.72 206.54"/><polygon class="cls-6" points="166.22 196.12 166.18 210.69 170.09 212.94 170.13 198.38 166.22 196.12"/><polygon class="cls-6" points="159.71 185.86 159.65 206.92 163.57 209.18 163.63 188.12 159.71 185.86"/><polygon class="cls-6" points="153.21 175.44 153.13 203.16 157.05 205.41 157.13 177.7 153.21 175.44"/><polygon class="cls-6" points="146.72 161.27 146.62 199.39 150.53 201.65 150.64 163.53 146.72 161.27"/><g class="cls-2"><polygon class="cls-18" points="419.92 313.66 433.59 305.72 433.77 243.96 420.1 251.91 419.92 313.66"/><polygon class="cls-19" points="420.1 251.91 433.77 243.96 380.02 212.94 366.36 220.88 420.1 251.91"/><polygon class="cls-20" points="366.36 220.88 366.18 282.63 419.92 313.66 420.1 251.91 366.36 220.88"/></g><path class="cls-14" d="M402.75,268.09c0,8.62-10.59,21.3-11.14,22-.55-1.31-11-26.12-11-34.74s5-11.39,11.1-7.86S402.77,259.46,402.75,268.09Zm-11.08-.53c3.1,1.79,5.63.36,5.64-3.21a12.34,12.34,0,0,0-5.6-9.7c-3.1-1.79-5.63-.36-5.64,3.21a12.34,12.34,0,0,0,5.6,9.7"/><polygon class="cls-1" points="104.91 264.12 104.77 104.26 0 164.47 0.14 324.33 104.91 264.12"/><polygon class="cls-6" points="110.23 268.29 110.09 108.43 5.32 168.65 5.46 328.5 110.23 268.29"/><polygon class="cls-5" points="115.55 272.46 115.41 112.61 10.64 172.82 10.78 332.68 115.55 272.46"/><polygon class="cls-6" points="104.98 149.77 104.97 134.57 21.11 182.76 21.12 197.97 104.98 149.77"/><polygon class="cls-6" points="104.98 173.36 104.97 158.15 21.11 206.35 21.12 221.55 104.98 173.36"/><polygon class="cls-6" points="104.98 239.98 104.97 224.78 21.11 272.98 21.12 288.18 104.98 239.98"/><polygon class="cls-6" points="104.98 263.57 104.97 248.37 21.11 296.56 21.12 311.76 104.98 263.57"/><polygon class="cls-6" points="53.78 244.52 53.78 209.34 21.11 228.12 21.11 263.3 53.78 244.52"/><path class="cls-6" d="M82.25,219.78c.07,0,.15,0,.22-.13l18.07-29.94a.5.5,0,0,1,.3-.2c.06,0,.21,0,.21.12v27.58a2.53,2.53,0,0,1-.93,1.7L64.71,239.36c-.39.23-.5-.3-.5-.88V210.8c0-.1-.07-.15,0-.23s.08-.08.14-.05Z"/><path class="cls-6" d="M64.21,205.9v-.38c0-.58.11-.82.5-1L100.12,184c.39-.23.93-.36.93.22v.48l-18.48,28c-.06.09-.08.1-.14.08Z"/><polygon class="cls-21" points="27.85 255.55 27.89 370.72 38.06 364.85 38.03 249.69 27.85 255.55"/><polygon class="cls-16" points="27.85 255.55 38.03 249.69 38.06 364.85 27.89 370.72 48.68 358.72 48.65 243.56 27.85 255.55"/><polygon class="cls-5" points="27.85 255.55 48.65 243.56 38.05 222.3 27.85 255.55"/><polygon class="cls-21" points="38.05 222.3 44.3 234.83 32.04 241.9 38.05 222.3"/><polygon class="cls-22" points="423.41 244.96 412.26 86.55 408.41 86.82 419.38 242.63 423.41 244.96"/><path class="cls-1" d="M425.92,89.75a5,5,0,0,1-.79.37,5.23,5.23,0,0,1-.62.18l-.14,0a5.77,5.77,0,0,1-.77.1h-.16a6.56,6.56,0,0,1-.79,0h-.09a7.64,7.64,0,0,1-.86-.13l-.09,0a9,9,0,0,1-.91-.25l-.06,0q-.48-.17-1-.39l-.06,0c-.34-.16-.68-.33-1-.53s-.69-.42-1-.66l-.06,0q-.47-.33-.94-.7l-.1-.08q-.45-.37-.88-.77l-.1-.09q-.44-.41-.86-.86l-.07-.07q-.45-.48-.87-1v0q-.43-.52-.84-1.07l0-.05c-.24-.32-.46-.65-.68-1s-.28-.45-.42-.67l-.34-.55-.15-.27c-.18-.32-.36-.64-.52-1l-.05-.1q-.3-.59-.56-1.2l0-.06q-.26-.59-.48-1.19l0-.08q-.23-.61-.41-1.23l0-.07q-.18-.59-.32-1.19l0-.11c-.09-.41-.17-.81-.24-1.22v0q-.1-.61-.15-1.21v-.1c0-.4,0-.8,0-1.19s0-.77.05-1.13V70q.05-.5.14-1l0-.12q.09-.45.22-.86l.05-.15a7.53,7.53,0,0,1,.29-.74l0-.07a6.5,6.5,0,0,1,.42-.75l.07-.1a5.71,5.71,0,0,1,.4-.52l.16-.18a5.21,5.21,0,0,1,.39-.37l.17-.15a5,5,0,0,1,.6-.42l-5,2.93a5,5,0,0,0-.6.42l-.17.15a5.22,5.22,0,0,0-.39.37l-.16.18a5.71,5.71,0,0,0-.4.52l-.07.1,0,0a6.53,6.53,0,0,0-.39.71v0l0,.07c-.07.16-.14.32-.21.5l-.08.25-.05.15,0,.14q-.08.26-.14.53l0,.19,0,.12,0,.19q0,.24-.07.49c0,.09,0,.18,0,.28v.22q0,.24,0,.48t0,.5v0q0,.23,0,.46t0,.5c0,.08,0,.15,0,.23v.1c0,.06,0,.12,0,.17s0,.34.06.5,0,.34.07.52v0q0,.24.08.48t.11.54l0,.2,0,.11.05.23q.07.27.14.55l.12.41,0,.07,0,.07.17.53.18.53,0,.1,0,.08.12.33.2.5.15.36,0,.06,0,.07.23.5.26.55,0,.08.05.1.22.43.3.53.15.27.06.11.28.45c.14.23.28.45.42.67l.07.11c.2.3.4.59.61.87l0,.06h0l.46.6.37.46v0h0l.4.47.4.45.06.06.07.07.29.31.43.43.13.12.1.09.22.21.46.4.2.16.1.08.16.13.45.34.33.23.06,0,.06,0,.44.29.43.27.1.06.33.18.42.22.27.13.07,0,.08,0,.41.17.42.16.07,0,.06,0,.28.09.43.12.21,0,.09,0,.13,0,.45.07.28,0h.18l.49,0h.54a5.66,5.66,0,0,0,.6-.09h0l.14,0a5.24,5.24,0,0,0,.57-.16l0,0a5,5,0,0,0,.79-.37Z"/><path class="cls-1" d="M402.06,60.3l5-2.93c2.29-1.33,5.27-1.49,8.59-.28l-5,2.93C407.32,58.81,404.35,59,402.06,60.3Z"/><g class="cls-23"><g class="cls-2"><path class="cls-1" d="M402.06,60.3l5-2.93a7.84,7.84,0,0,1,1.34-.62l-5,2.93a7.84,7.84,0,0,0-1.34.62"/><path class="cls-1" d="M403.4,59.68l5-2.93a8.28,8.28,0,0,1,1.14-.31l-5,2.93a8.28,8.28,0,0,0-1.14.31"/><path class="cls-1" d="M404.54,59.37l5-2.93a8.92,8.92,0,0,1,.93-.13l-5,2.93a8.92,8.92,0,0,0-.93.13"/><path class="cls-1" d="M405.47,59.23l5-2.93q.41,0,.83,0l-5,2.93q-.42,0-.83,0"/><path class="cls-1" d="M406.31,59.19l5-2.93.76,0-5,2.93-.76,0"/><path class="cls-1" d="M407.06,59.22l5-2.93.73.07-5,2.93-.73-.07"/><path class="cls-1" d="M407.79,59.29l5-2.93.71.12-5,2.93-.71-.12"/><path class="cls-1" d="M408.5,59.41l5-2.93.67.15-5,2.93-.67-.15"/><path class="cls-1" d="M409.17,59.56l5-2.93.67.18-5,2.93-.67-.18"/><path class="cls-1" d="M409.83,59.74l5-2.93.66.21-5,2.93-.66-.21"/><path class="cls-1" d="M410.49,60l5-2.93.16.06-5,2.93-.16-.06"/></g></g><polygon class="cls-6" points="423.89 86.06 428.94 83.13 434.87 86.55 429.82 89.48 423.89 86.06"/><g class="cls-2"><path class="cls-1" d="M430.12,97l-5,2.93c2.92-1.7,4.73-5.3,4.75-10.42l5-2.93C434.85,91.67,433,95.27,430.12,97Z"/><g class="cls-24"><path class="cls-1" d="M429.82,89.48l5-2.93v0l-5,2.93v0"/><path class="cls-1" d="M429.82,89.53l5-2.93q0,.4,0,.78l-5,2.93q0-.39,0-.78"/><path class="cls-1" d="M429.8,90.31l5-2.93q0,.39,0,.76l-5,2.93q0-.38,0-.76"/><path class="cls-1" d="M429.75,91.07l5-2.93q0,.4-.08.78l-5,2.93q0-.38.08-.78"/><path class="cls-1" d="M429.67,91.86l5-2.93q0,.39-.12.77l-5,2.93q.07-.38.12-.77"/><path class="cls-1" d="M429.56,92.63l5-2.93q-.07.41-.16.79l-5,2.93q.09-.39.16-.79"/><path class="cls-1" d="M429.4,93.42l5-2.93q-.1.43-.22.83l-5,2.93q.12-.4.22-.83"/><path class="cls-1" d="M429.18,94.25l5-2.93q-.13.44-.28.85l-5,2.93q.15-.41.28-.85"/><path class="cls-1" d="M428.9,95.11l5-2.93q-.18.48-.39.92l-5,2.93q.21-.44.39-.92"/><path class="cls-1" d="M428.51,96l5-2.93a10.25,10.25,0,0,1-.61,1.11l-5,2.93a10.24,10.24,0,0,0,.61-1.11"/><path class="cls-1" d="M427.89,97.15l5-2.93A8.29,8.29,0,0,1,430.12,97l-5,2.93a8.29,8.29,0,0,0,2.82-2.76"/></g></g><polygon class="cls-1" points="416.63 37.84 421.68 34.9 421.6 67.01 416.56 69.94 416.63 37.84"/><polygon class="cls-4" points="410.7 34.41 415.75 31.48 421.68 34.9 416.63 37.84 410.7 34.41"/><path class="cls-3" d="M416.63,37.84l-.07,32.11-3-1.71c-5.69-3.29-10.34-.64-10.36,5.9s4.6,14.55,10.29,17.83,10.35.64,10.37-5.91l5.93,3.42c0,10.3-7.34,14.47-16.31,9.3S397.28,81,397.31,70.71c0-9.13,5.78-13.44,13.34-10.7l.06-25.6Z"/><g class="cls-2"><polygon class="cls-22" points="630.41 568.17 668.51 546.03 668.44 568.61 630.34 590.75 630.41 568.17"/><polygon class="cls-25" points="574.24 535.74 612.34 513.6 668.51 546.03 630.41 568.17 574.24 535.74"/><polygon class="cls-26" points="630.41 568.17 630.34 590.75 574.18 558.32 574.24 535.74 630.41 568.17"/></g><g class="cls-2"><polygon class="cls-27" points="390.35 6.64 401.78 0 619.33 125.6 607.9 132.24 390.35 6.64"/><polygon class="cls-28" points="607.85 149.39 619.28 142.75 638 153.55 626.57 160.2 607.85 149.39"/><polygon class="cls-22" points="606.74 541.6 607.85 149.39 626.57 160.2 625.45 552.4 606.74 541.6"/><polygon class="cls-28" points="607.9 132.24 619.33 125.6 638.04 136.41 626.62 143.05 607.9 132.24"/><polygon class="cls-22" points="626.62 143.05 626.57 160.2 607.85 149.39 390.3 23.79 390.35 6.64 607.9 132.24 626.62 143.05"/></g><g class="cls-2"><polygon class="cls-25" points="607.95 112.63 619.38 105.98 638.15 98.28 626.72 104.92 607.95 112.63"/><polygon class="cls-27" points="626.57 160.2 626.57 160.2 625.46 552.4 636.88 545.76 638 153.55 638 153.55 638.04 136.41 626.62 143.05 626.57 160.2"/><polygon class="cls-27" points="638.15 98.28 626.72 104.92 626.62 143.05 638.04 136.41 638.15 98.28"/><polygon class="cls-22" points="607.95 112.63 626.72 104.92 626.62 143.05 607.9 132.24 607.95 112.63"/></g><g class="cls-2"><path class="cls-5" d="M507.51,236.73l15-8.73c-6.31,3.67-10.23,11.47-10.26,22.55-.06,22.32,15.63,49.5,35,60.71l-15,8.73c-19.42-11.21-35.11-38.39-35-60.71C497.28,248.2,501.19,240.4,507.51,236.73Z"/><path class="cls-5" d="M572.35,313.71l-15,8.73c-6.39,3.72-15.25,3.19-25-2.45l15-8.73C557.1,316.9,566,317.43,572.35,313.71Z"/><path class="cls-29" d="M522.53,228c6.39-3.72,15.25-3.19,25,2.45l-15,8.73c-9.77-5.64-18.63-6.17-25-2.45Z"/><path class="cls-29" d="M547.56,230.45c7.28,4.2,14,10.65,19.64,18.25l-15,8.73c-5.6-7.6-12.36-14-19.64-18.25Z"/><path class="cls-29" d="M582.61,291.16c0,11.09-3.94,18.89-10.25,22.56l-15,8.73c6.31-3.67,10.22-11.47,10.25-22.56,0-14-6.08-29.8-15.41-42.46l15-8.73C576.53,261.36,582.64,277.21,582.61,291.16Z"/><path class="cls-5" d="M581,328.58l-15,8.73c7.17-4.17,12-12.28,13.42-23.67a57.2,57.2,0,0,0,.4-6.7,69.07,69.07,0,0,0-.36-7.14l15-8.73a69.07,69.07,0,0,1,.36,7.14,57.15,57.15,0,0,1-.4,6.7C593,316.3,588.16,324.42,581,328.58Z"/><path class="cls-5" d="M498.86,221.86l15-8.73c8.61-5,20.54-4.3,33.7,3.3,24.12,13.93,44,46.14,46.86,74.64l-15,8.73c-2.88-28.5-22.74-60.71-46.86-74.64C519.4,217.56,507.48,216.85,498.86,221.86Z"/><path class="cls-1" d="M579.43,299.8a69.07,69.07,0,0,1,.36,7.14,57.2,57.2,0,0,1-.4,6.7c-3,25.08-23,34.3-47.13,20.37C506.1,318.91,485,282.3,485,252.24s21.36-42.18,47.52-27.08C556.69,239.09,576.54,271.3,579.43,299.8ZM532.3,320c19.42,11.21,35.22,2.22,35.28-20.1s-15.63-49.49-35-60.71-35.22-2.22-35.28,20.1,15.63,49.5,35,60.71"/><g class="cls-30"><path class="cls-5" d="M532.53,239.18c19.42,11.21,35.11,38.39,35,60.71S551.72,331.21,532.3,320s-35.11-38.39-35-60.71S513.11,228,532.53,239.18Z"/></g><path class="cls-1" d="M600.8,312.14l0,13.85-21.37-12.34a57.16,57.16,0,0,0,.4-6.7,69,69,0,0,0-.36-7.14Z"/><polygon class="cls-5" points="579.43 299.8 594.45 291.06 615.83 303.4 600.8 312.14 579.43 299.8"/><polygon class="cls-5" points="600.8 312.14 615.83 303.4 615.79 317.25 600.76 325.98 600.8 312.14"/></g><g class="cls-2"><polygon class="cls-31" points="600.82 304.92 615.85 296.18 670.47 327.72 655.44 336.45 600.82 304.92"/><path class="cls-31" d="M679.15,356.86l-15,8.73c2.21-1.28,3.58-4,3.59-7.89,0-7.81-5.47-17.33-12.27-21.25l15-8.73c6.8,3.92,12.29,13.44,12.27,21.25C682.73,352.85,681.36,355.58,679.15,356.86Z"/><path class="cls-32" d="M655.44,336.45c6.8,3.92,12.29,13.44,12.27,21.25s-5.55,11-12.35,7L600.74,333.2l0-7.22,0-13.85,0-7.22Z"/></g><path class="cls-22" d="M411.33,81.41l-.15-.27c-.18-.32-.36-.64-.52-1l-.05-.1q-.3-.59-.56-1.2l0-.06q-.26-.59-.48-1.19l0-.08q-.23-.61-.41-1.23l0-.07c-.06-.2-.11-.4-.16-.61L379,219.3l3.52,2L411.57,81.8Z"/><polygon class="cls-31" points="473.05 572.61 485.9 565.17 485.6 640.7 472.75 648.14 473.05 572.61"/><polygon class="cls-12" points="407.38 534.6 420.23 527.15 485.9 565.17 473.05 572.61 407.38 534.6"/><polygon class="cls-32" points="473.05 572.61 472.75 648.14 407.08 610.13 407.38 534.6 473.05 572.61"/><path class="cls-33" d="M440.21,566.07c5.25,3,9.5,10.42,9.47,16.45s-4.31,8.47-9.56,5.43-9.5-10.39-9.47-16.45S434.94,563,440.21,566.07Z"/><path class="cls-33" d="M449.09,591.15c4.31,2.5,7.81,8.58,7.8,13.54L456.83,618,451,614.65l0-7.4a1.85,1.85,0,0,0-.85-1.48c-.46-.27-.86-.06-.86.49l0,7.4-18.6-10.77,0-7.4a1.89,1.89,0,0,0-.85-1.48c-.48-.28-.86-.06-.86.49l0,7.4-5.79-3.35.05-13.31c0-5,3.56-7,7.87-4.47l.19.11a24,24,0,0,0,8.77,9.78c3.52,2,6.67,2,8.81.39Z"/><polygon class="cls-18" points="371.28 576.1 381.62 570.1 381.38 630.9 371.04 636.89 371.28 576.1"/><polygon class="cls-19" points="318.42 545.5 328.76 539.51 381.62 570.1 371.28 576.1 318.42 545.5"/><polygon class="cls-20" points="371.28 576.1 371.04 636.89 318.18 606.29 318.42 545.5 371.28 576.1"/><path class="cls-5" d="M360.31,588.23s-.42-.06-1-.13-1.39-.12-2.17-.14a18.78,18.78,0,0,0-1.25-2.34,19.53,19.53,0,0,0-1.58-2.17c.39-.61.75-1.24,1-1.73s.42-.86.42-.86a.69.69,0,0,0,0-.6,1.92,1.92,0,0,0-.47-.72l-.19-.18-.5-.47c-.21-.19-.46-.4-.73-.64s-.57-.46-.86-.69-.6-.45-.89-.64-.56-.38-.79-.53l-.57-.35-.16-.09-.06,0a1.52,1.52,0,0,0-.77-.22.54.54,0,0,0-.48.26s-.23.29-.56.75-.71,1-1.07,1.68a15.42,15.42,0,0,0-4.77-1.3c-.3-.81-.64-1.61-.91-2.21s-.49-1-.49-1a1,1,0,0,0-.45-.51,1.38,1.38,0,0,0-.77-.2H340l-.59,0c-.24,0-.52,0-.82.09l-.46.07-.46.09a13.48,13.48,0,0,0-1.66.44c-.22.07-.4.14-.53.19l-.2.08a.91.91,0,0,0-.51.45.7.7,0,0,0,0,.6s.12.43.34,1.07.5,1.43.83,2.23a9.81,9.81,0,0,0-3.13,2.89c-.77-.4-1.54-.76-2.13-1s-1-.43-1-.43a.69.69,0,0,0-.6,0,.89.89,0,0,0-.28.18,1.12,1.12,0,0,0-.21.3l-.09.19c-.06.12-.14.3-.23.51l-.15.35-.15.4c0,.14-.1.28-.15.43l-.14.45c-.09.3-.16.62-.23.91s-.11.57-.16.81-.06.44-.08.59l0,.22a1.27,1.27,0,0,0,.59,1.29s.39.24,1,.58l1,.55,1.1.55a15.58,15.58,0,0,0,.87,4.91l-.91.46L330,594c-.48.29-.79.5-.79.5a.54.54,0,0,0-.29.47,1.59,1.59,0,0,0,.15.79l.41.83.45.84c.17.3.37.62.56.94s.41.63.61.92l.56.78.58.75a1.91,1.91,0,0,0,.67.53.67.67,0,0,0,.6,0s.36-.13.89-.35l.88-.39.92-.46a18.84,18.84,0,0,0,4.22,3.22c0,.38,0,.76,0,1.13s0,.75,0,1.06c0,.63,0,1.06,0,1.06,0,.39.36.88.92,1.12l.23.09.6.24c.25.09.54.2.86.3s.65.21,1,.29l.5.13.49.11.46.1.41.07.61.09.23,0a1.4,1.4,0,0,0,.4,0,.94.94,0,0,0,.32-.12.55.55,0,0,0,.28-.48s.06-.4.12-1,.12-1.37.14-2.16a11.34,11.34,0,0,0,4.39-.89c.59.67,1.21,1.31,1.69,1.8s.84.82.84.82a.89.89,0,0,0,.58.3,1,1,0,0,0,.7-.15l.18-.11c.11-.07.27-.17.45-.3a12,12,0,0,0,1.29-1l.33-.31.3-.32c.2-.2.37-.41.51-.58s.26-.32.34-.43l.12-.17a1.05,1.05,0,0,0,.22-.69.91.91,0,0,0-.25-.61s-.28-.37-.74-.91-1-1.2-1.63-1.85a11.66,11.66,0,0,0,1.25-4.33c.78,0,1.57.06,2.16.05s1,0,1,0a.55.55,0,0,0,.5-.24,1.16,1.16,0,0,0,.19-.7v-.06s0-.1,0-.17l0-.62c0-.26-.05-.56-.09-.88s-.1-.67-.15-1-.13-.69-.21-1-.15-.63-.23-.89l-.19-.63c0-.15-.08-.24-.08-.24a1.91,1.91,0,0,0-.44-.73A.89.89,0,0,0,360.31,588.23Zm-10.24,12.2c-4.27,2.15-10.27-.16-13.4-5.15s-2.21-10.78,2.06-12.93,10.27.16,13.4,5.15S354.34,598.28,350.07,600.43Z"/><polygon class="cls-34" points="392.58 637.76 402.92 631.77 402.68 692.56 392.34 698.55 392.58 637.76"/><polygon class="cls-35" points="339.71 607.15 350.05 601.16 402.92 631.77 392.58 637.76 339.71 607.15"/><polygon class="cls-36" points="392.58 637.76 392.34 698.55 339.47 667.95 339.71 607.15 392.58 637.76"/><path class="cls-33" d="M350.28,644a27.28,27.28,0,0,0,1.64,9.33c2.92,8.08,9.54,17.37,9.54,17.37s-4.21-12.55,1.38-8.42a13.05,13.05,0,0,0,3.18,1.5c8.69,3.35,15.76-.07,15.77-7.64s-7-16.42-15.73-19.77S350.29,636.39,350.28,644Zm20.34,9c0-1.31,1.07-2,2.37-1.45a3.85,3.85,0,0,1,2.37,3.28c0,1.31-1.07,2-2.37,1.46A3.86,3.86,0,0,1,370.62,653Zm-7-2.69c0-1.31,1.07-2,2.38-1.45a3.84,3.84,0,0,1,2.37,3.28c0,1.31-1.06,2-2.37,1.46A3.86,3.86,0,0,1,363.64,650.3Zm-7-2.68c0-1.31,1.07-2,2.37-1.45a3.83,3.83,0,0,1,2.37,3.28c0,1.31-1.05,2-2.37,1.46A3.86,3.86,0,0,1,356.68,647.61Z"/></g></g></g></svg>